{"glyphs":{"0":{"ha":1028,"x_min":0,"x_max":0,"o":"m 936 481 b 493 990 936 757 799 990 b 49 481 186 990 49 757 b 493 -12 49 206 186 -12 b 936 481 799 -12 936 206 z m 606 481 b 493 0 606 100 599 0 b 379 481 379 0 379 100 b 493 978 379 863 379 978 b 606 481 601 978 606 863 z "},"1":{"ha":588,"x_min":0,"x_max":0,"o":"m 454 119 l 454 990 l 325 990 l 63 761 l 69 751 b 206 724 69 751 206 854 l 206 119 b 143 11 206 54 200 11 l 143 0 l 506 0 l 506 11 b 454 119 457 11 454 50 z "},"2":{"ha":735,"x_min":0,"x_max":0,"o":"m 667 296 b 528 217 636 240 575 217 l 228 217 l 263 261 b 625 742 338 357 625 528 b 360 990 625 868 499 990 b 86 607 119 990 -4 776 l 108 619 b 324 371 61 882 656 863 l 44 0 l 597 0 l 678 296 z "},"3":{"ha":779,"x_min":0,"x_max":0,"o":"m 714 299 b 465 531 714 407 617 525 b 356 990 728 657 624 990 b 101 733 151 990 68 843 l 114 736 b 313 792 125 819 251 835 b 213 501 401 728 396 532 l 213 489 b 429 268 382 489 414 356 b 303 0 457 111 407 0 b 190 44 192 0 174 44 b 267 92 222 49 246 64 b 238 260 306 146 292 219 b 71 231 185 299 108 286 b 61 106 43 193 43 140 b 304 -12 107 26 182 -12 b 714 299 483 -12 714 25 z "},"4":{"ha":775,"x_min":0,"x_max":0,"o":"m 729 272 l 729 369 l 613 369 l 613 978 l 549 990 l 40 296 l 40 272 l 363 272 l 363 183 b 300 13 363 18 358 13 l 300 0 l 675 0 l 675 13 b 613 190 617 13 613 15 l 613 272 z m 363 369 l 157 369 b 165 447 129 369 110 371 l 363 717 z "},"5":{"ha":801,"x_min":0,"x_max":0,"o":"m 133 619 l 157 746 l 639 746 l 706 978 l 190 978 l 81 408 b 511 247 404 451 490 319 b 350 0 547 122 472 0 b 258 50 249 0 243 42 b 311 126 286 65 303 90 b 219 276 326 194 285 261 b 67 185 151 292 83 250 b 107 58 57 138 75 86 b 350 -12 142 31 207 -12 b 726 286 539 -12 714 69 b 133 619 740 506 542 688 z "},"6":{"ha":851,"x_min":0,"x_max":0,"o":"m 522 608 b 340 493 426 608 349 549 b 494 978 342 849 394 978 b 585 942 579 978 596 944 b 507 886 553 938 525 915 b 546 711 469 828 486 747 b 721 751 607 674 685 690 b 725 883 749 792 747 847 b 494 990 715 899 651 990 b 58 442 219 990 58 783 b 440 -12 58 165 186 -12 b 799 303 651 -12 799 88 b 522 608 799 456 753 608 z m 440 0 b 340 458 336 0 344 157 b 446 550 353 521 401 550 b 539 275 515 550 539 472 b 440 0 539 60 544 0 z "},"7":{"ha":793,"x_min":0,"x_max":0,"o":"m 122 978 l 64 663 l 76 663 b 217 743 106 718 169 743 l 597 743 b 228 0 314 432 257 229 l 494 0 b 613 743 494 139 488 489 l 749 978 z "},"8":{"ha":799,"x_min":0,"x_max":0,"o":"m 385 690 b 278 865 299 732 269 804 b 403 978 288 926 335 978 b 558 785 481 978 558 926 b 513 625 558 707 544 649 z m 446 339 b 560 128 536 285 571 199 b 406 0 549 57 493 0 b 233 247 294 0 233 75 b 272 433 233 340 236 400 z m 406 -12 b 760 288 660 -12 760 107 b 526 618 760 413 694 543 b 693 785 560 626 693 663 b 403 990 693 903 611 990 b 71 726 188 990 71 868 b 229 458 71 601 131 526 b 54 236 168 436 54 376 b 406 -12 54 71 161 -12 z "},"9":{"ha":842,"x_min":0,"x_max":0,"o":"m 349 371 b 511 492 426 371 503 438 b 357 0 508 138 531 0 b 267 38 271 0 254 35 b 344 93 299 42 325 64 b 306 268 382 151 364 231 b 129 228 244 306 167 289 b 126 96 103 188 104 132 b 357 -12 135 81 200 -12 b 793 538 725 -12 793 196 b 411 990 793 814 683 990 b 53 676 200 990 53 892 b 349 371 53 524 96 371 z m 417 978 b 511 525 510 978 507 826 b 394 429 497 463 464 429 b 313 704 332 429 313 522 b 417 978 313 919 328 978 z "}," ":{"ha":389,"x_min":0,"x_max":0,"o":""},"!":{"ha":525,"x_min":0,"x_max":0,"o":"m 340 361 l 396 1036 l 129 1036 l 181 361 z m 393 122 b 260 -12 393 47 333 -12 b 126 122 186 -12 126 47 b 260 256 126 196 186 256 b 393 122 333 256 393 196 z "},"\"":{"ha":836,"x_min":0,"x_max":0,"o":"m 182 524 l 332 524 l 371 978 l 140 978 z m 504 524 l 654 524 l 694 978 l 463 978 z "},"#":{"ha":1085,"x_min":0,"x_max":0,"o":"m 849 801 l 904 1036 l 743 1036 l 688 801 l 500 801 l 554 1036 l 393 1036 l 338 801 l 149 801 l 149 636 l 300 636 l 256 443 l 61 443 l 61 278 l 217 278 l 153 0 l 314 0 l 378 278 l 567 278 l 503 0 l 664 0 l 728 278 l 908 278 l 908 443 l 765 443 l 811 636 l 996 636 l 996 801 z m 604 443 l 417 443 l 461 636 l 650 636 z "},"$":{"ha":811,"x_min":0,"x_max":0,"o":"m 403 0 l 403 324 l 426 308 b 403 0 593 185 551 0 z m 390 683 l 376 693 b 390 978 196 811 240 978 z m 590 551 l 403 675 l 403 978 b 706 693 615 971 678 793 l 718 693 l 718 926 b 403 990 718 926 631 988 l 403 1160 l 390 1160 l 390 990 b 85 885 163 990 85 885 b 213 443 -33 736 15 567 l 390 331 l 390 0 b 42 325 179 10 64 231 l 29 325 l 29 58 b 390 -12 29 58 129 -10 l 390 -182 l 403 -182 l 403 -12 b 718 101 643 -12 718 101 b 590 551 822 253 774 431 z "},"%":{"ha":1557,"x_min":0,"x_max":0,"o":"m 432 943 b 196 689 271 943 196 826 b 432 444 196 553 271 444 b 667 689 592 444 667 553 b 432 943 667 826 592 943 z m 432 457 b 361 689 368 457 361 500 b 432 931 361 879 367 931 b 501 689 494 931 501 879 b 432 457 501 500 497 457 z m 1125 533 b 889 281 964 533 889 418 b 1125 36 889 143 964 36 b 1361 281 1285 36 1361 143 b 1125 533 1361 418 1285 533 z m 1125 49 b 1054 281 1061 49 1054 90 b 1125 521 1054 469 1060 521 b 1194 281 1188 521 1194 469 b 1125 49 1194 90 1192 49 z m 1099 978 l 335 0 l 472 0 l 1238 978 z "},"&":{"ha":1139,"x_min":0,"x_max":0,"o":"m 531 971 b 657 838 599 971 657 914 b 546 635 657 815 658 708 l 463 760 b 531 971 381 879 460 971 z m 363 207 b 332 493 261 335 282 454 l 351 506 l 601 153 b 363 207 546 46 426 125 z m 968 107 b 844 192 925 107 899 119 b 744 338 818 225 788 272 b 850 401 775 404 849 439 b 889 325 850 371 867 344 b 1051 338 939 283 1011 290 b 1039 500 1093 388 1086 460 b 919 519 1004 528 956 531 b 736 350 853 499 792 460 l 553 624 b 686 836 665 700 686 789 b 468 1032 686 969 571 1032 b 297 583 217 1032 142 789 l 342 518 l 322 507 b 140 93 215 443 8 290 b 608 142 261 -86 561 -18 b 700 36 643 93 671 60 b 861 -12 747 -3 793 -12 b 1054 178 996 -12 1056 68 l 1040 179 b 968 107 1040 126 1008 107 z "},"'":{"ha":433,"x_min":0,"x_max":0,"o":"m 146 524 l 296 524 l 335 978 l 104 978 z "},"(":{"ha":517,"x_min":0,"x_max":0,"o":"m 108 353 b 493 -286 114 307 85 -56 l 513 -268 b 349 349 335 -107 349 349 b 515 1017 349 349 335 804 l 496 1035 b 108 353 83 747 115 408 z "},")":{"ha":514,"x_min":0,"x_max":0,"o":"m 19 1036 l 0 1018 b 167 350 181 806 167 350 b 3 -267 167 350 181 -106 l 22 -285 b 407 354 431 -54 401 308 b 19 1036 400 410 432 749 z "},"*":{"ha":786,"x_min":0,"x_max":0,"o":"m 692 692 l 633 869 l 422 739 l 483 978 l 296 978 l 356 739 l 147 869 l 89 692 l 335 674 l 146 515 l 297 406 l 389 635 l 482 406 l 635 515 l 444 674 z "},"+":{"ha":993,"x_min":0,"x_max":0,"o":"m 913 522 l 588 522 l 588 860 l 403 860 l 403 522 l 78 522 l 78 338 l 403 338 l 403 0 l 588 0 l 588 338 l 913 338 z "},",":{"ha":447,"x_min":0,"x_max":0,"o":"m 325 235 b 122 235 269 290 179 290 b 124 29 67 176 67 86 b 221 -11 151 3 186 -8 b 146 -171 246 -15 221 -111 l 156 -185 b 286 -74 221 -147 267 -104 b 325 235 335 -6 413 147 z "},"-":{"ha":617,"x_min":0,"x_max":0,"o":"m 526 257 l 526 449 l 89 449 l 89 257 z "},".":{"ha":449,"x_min":0,"x_max":0,"o":"m 372 131 b 231 275 372 210 308 275 b 86 131 150 275 86 210 b 231 -12 86 50 150 -12 b 372 131 308 -12 372 50 z "},"/":{"ha":646,"x_min":0,"x_max":0,"o":"m 622 1007 l 447 1007 l 19 -29 l 194 -29 z "},":":{"ha":433,"x_min":0,"x_max":0,"o":"m 360 536 b 218 681 360 615 296 681 b 74 536 138 681 74 615 b 218 393 74 457 138 393 b 360 536 296 393 360 457 z m 360 131 b 218 275 360 210 296 275 b 74 131 138 275 74 210 b 218 -12 74 50 138 -12 b 360 131 296 -12 360 50 z "},";":{"ha":424,"x_min":0,"x_max":0,"o":"m 356 536 b 214 681 356 617 292 681 b 69 536 133 681 69 617 b 214 393 69 457 133 393 b 356 536 292 393 356 457 z m 315 232 b 113 232 260 288 169 288 b 114 26 57 174 57 83 b 211 -14 142 0 176 -11 b 136 -174 236 -17 211 -114 l 146 -187 b 276 -76 211 -150 257 -107 b 315 232 325 -8 403 144 z "},"<":{"ha":833,"x_min":0,"x_max":0,"o":"m 347 369 l 768 574 l 768 760 l 64 399 l 64 339 l 768 -22 l 768 163 z "},"=":{"ha":851,"x_min":0,"x_max":0,"o":"m 788 443 l 788 610 l 78 610 l 78 443 z m 788 131 l 788 297 l 78 297 l 78 131 z "},">":{"ha":833,"x_min":0,"x_max":0,"o":"m 65 163 l 65 -22 l 769 339 l 769 399 l 65 760 l 65 574 l 486 369 z "},"?":{"ha":863,"x_min":0,"x_max":0,"o":"m 750 768 b 243 963 740 975 467 1063 b 108 794 157 924 107 847 b 149 685 107 756 115 713 b 311 693 197 643 271 646 b 297 856 350 742 346 813 b 218 882 274 875 246 886 b 250 954 196 879 201 935 b 471 768 363 999 461 892 b 407 506 482 657 468 571 b 378 310 328 422 372 347 l 390 311 b 529 456 383 394 454 436 b 750 768 610 476 758 565 z m 518 108 b 396 -12 518 40 463 -12 b 274 108 329 -12 274 40 b 396 231 274 176 329 231 b 518 108 463 231 518 176 z "},"@":{"ha":1368,"x_min":0,"x_max":0,"o":"m 806 882 b 54 263 393 907 78 669 b 543 -254 32 -121 342 -251 b 946 -144 838 -260 946 -144 l 939 -136 b 596 -199 939 -136 792 -226 b 244 314 165 -137 244 314 b 824 772 276 551 471 807 b 1183 369 1156 739 1192 581 b 981 81 1174 158 1040 81 b 961 136 939 81 956 108 b 1046 543 972 186 1046 543 l 875 547 b 868 511 875 547 872 533 b 747 576 868 514 829 576 b 438 253 524 576 453 351 b 594 -12 424 156 467 -12 b 788 103 710 -12 775 85 b 936 -12 781 46 824 -8 b 1303 346 1046 -17 1272 54 b 806 882 1342 728 1072 865 z m 799 156 b 718 88 799 156 779 82 b 650 306 661 92 611 143 b 807 543 678 421 732 547 b 847 403 863 540 857 463 b 799 156 832 310 807 190 z "},"A":{"ha":1058,"x_min":0,"x_max":0,"o":"m 531 282 l 268 282 l 392 594 z m 251 269 b 28 11 144 25 69 14 l 28 0 l 428 0 l 428 11 b 264 269 261 11 236 206 l 536 269 l 581 174 b 553 11 581 174 664 11 l 553 0 l 1039 0 l 1039 11 b 914 126 1011 14 964 15 b 539 978 914 126 890 172 l 532 978 z "},"B":{"ha":1043,"x_min":0,"x_max":0,"o":"m 435 965 b 615 740 500 965 615 953 b 458 503 615 525 532 503 l 418 503 l 418 965 z m 597 501 b 900 732 625 501 900 525 b 472 978 900 976 665 978 l 51 978 l 51 967 b 132 786 113 967 132 872 l 132 190 b 51 13 132 96 111 13 l 51 0 l 472 0 b 965 249 713 0 965 6 b 597 501 965 486 688 501 z m 438 13 l 418 13 l 418 490 l 447 490 b 664 254 539 490 664 486 b 438 13 664 8 558 13 z "},"C":{"ha":1003,"x_min":0,"x_max":0,"o":"m 917 333 b 617 0 869 57 711 0 b 397 489 467 0 397 107 b 617 978 397 869 463 978 b 917 646 718 978 875 933 l 928 646 l 942 926 b 617 990 908 953 796 990 b 56 489 319 990 56 803 b 617 -12 56 175 319 -12 b 942 53 764 -12 904 28 l 928 333 z "},"D":{"ha":1133,"x_min":0,"x_max":0,"o":"m 463 13 l 401 13 l 401 965 l 463 965 b 717 485 633 965 717 929 b 463 13 717 32 626 13 z m 463 978 l 51 978 l 51 967 b 133 786 113 967 133 872 l 133 190 b 51 13 133 96 111 13 l 51 0 l 463 0 b 1065 485 739 0 1065 79 b 463 978 1065 892 739 978 z "},"E":{"ha":949,"x_min":0,"x_max":0,"o":"m 836 272 b 439 13 836 -3 439 13 l 389 13 l 389 488 l 501 488 b 665 324 503 488 650 490 l 678 324 l 678 664 l 665 664 b 501 500 650 496 503 500 l 389 500 l 389 965 l 439 965 b 818 693 439 965 818 964 l 831 693 l 831 978 l 38 978 l 38 967 b 118 786 99 967 118 872 l 118 190 b 38 13 118 96 96 13 l 38 0 l 849 0 l 849 272 z "},"F":{"ha":875,"x_min":0,"x_max":0,"o":"m 522 13 b 388 171 522 13 388 0 l 388 488 l 511 488 b 676 324 513 488 660 490 l 689 324 l 689 664 l 676 664 b 511 500 660 496 513 500 l 388 500 l 388 965 l 438 965 b 829 693 438 965 829 964 l 842 693 l 842 978 l 35 978 l 35 967 b 115 786 96 967 115 872 l 115 190 b 35 13 115 96 93 13 l 35 0 l 522 0 z "},"G":{"ha":1071,"x_min":0,"x_max":0,"o":"m 640 365 l 640 353 b 738 188 717 353 738 339 b 588 0 738 53 694 0 b 396 489 432 0 396 107 b 588 978 396 871 429 978 b 901 639 678 978 901 961 l 913 639 l 939 913 b 588 990 853 969 778 990 b 54 489 288 990 54 785 b 588 -12 54 194 288 -12 b 943 67 736 -12 874 18 b 1032 353 943 344 936 353 l 1032 365 z "},"H":{"ha":1051,"x_min":0,"x_max":0,"o":"m 1024 967 l 1024 978 l 665 978 l 665 967 b 699 847 704 967 699 861 l 699 474 l 363 474 l 363 847 b 396 967 363 861 354 967 l 396 978 l 36 978 l 36 967 b 99 847 103 967 99 861 l 99 133 b 36 13 99 111 104 13 l 36 0 l 396 0 l 396 13 b 363 133 358 13 363 111 l 363 461 l 699 461 l 699 133 b 665 13 699 111 701 13 l 665 0 l 1024 0 l 1024 13 b 963 133 958 13 963 111 l 963 847 b 1024 967 963 861 961 967 z "},"I":{"ha":563,"x_min":0,"x_max":0,"o":"m 54 978 l 54 967 b 144 843 114 967 144 965 l 144 157 b 54 13 144 25 113 13 l 54 0 l 513 0 l 513 13 b 422 157 454 13 422 25 l 422 843 b 513 967 422 965 454 967 l 513 978 z "},"J":{"ha":586,"x_min":0,"x_max":0,"o":"m 131 978 l 131 967 b 189 711 189 967 189 967 l 189 253 b -40 -221 189 -49 79 -178 l -36 -232 b 468 253 190 -199 468 -82 l 468 881 b 533 967 468 969 471 967 l 533 978 z "},"K":{"ha":1175,"x_min":0,"x_max":0,"o":"m 981 114 b 614 603 981 114 939 168 b 1104 967 839 846 1019 967 l 1104 978 l 646 978 l 646 967 b 660 669 733 967 760 778 l 424 419 b 564 224 424 419 483 338 b 874 0 710 13 726 0 l 1121 0 l 1121 13 b 981 114 1085 15 1053 18 z m 453 978 l 453 967 b 383 871 392 967 383 972 l 383 101 b 449 13 383 7 389 13 l 449 0 l 56 0 l 56 13 b 113 101 114 13 113 7 l 113 871 b 56 967 113 957 115 967 l 56 978 z "},"L":{"ha":885,"x_min":0,"x_max":0,"o":"m 782 301 b 392 13 782 43 511 13 l 392 13 l 392 868 b 463 967 392 968 403 967 l 463 978 l 47 978 l 47 967 b 115 886 107 967 115 971 l 115 131 b 58 13 115 36 118 13 l 58 0 l 794 0 l 794 301 z "},"M":{"ha":1429,"x_min":0,"x_max":0,"o":"m 817 339 l 481 978 l 85 978 l 85 965 b 222 844 124 963 168 940 l 222 368 b 14 13 222 186 163 13 l 14 0 l 447 0 l 447 13 b 235 368 286 13 235 189 l 235 824 l 685 -12 l 697 -12 l 1057 940 l 1057 129 b 986 13 1057 35 1051 13 l 986 0 l 1410 0 l 1410 13 b 1331 129 1342 13 1331 35 l 1331 863 b 1396 965 1331 947 1328 965 l 1396 978 l 1057 978 z "},"N":{"ha":1172,"x_min":0,"x_max":0,"o":"m 939 0 l 939 667 b 1149 967 939 796 976 967 l 1149 978 l 728 978 l 728 967 b 926 667 882 967 926 796 l 926 296 l 454 978 l 11 978 l 11 967 b 185 856 47 964 101 965 l 250 763 l 250 313 b 31 13 250 203 222 13 l 31 0 l 472 0 l 472 13 b 263 313 269 13 263 201 l 263 746 l 786 0 z "},"O":{"ha":1128,"x_min":0,"x_max":0,"o":"m 564 0 b 392 482 399 0 392 100 b 564 978 392 863 399 978 b 733 482 728 978 733 863 b 564 0 733 100 728 0 z m 564 990 b 57 482 258 990 57 757 b 564 -12 57 206 258 -12 b 1071 482 869 -12 1071 206 b 564 990 1071 757 869 990 z "},"P":{"ha":986,"x_min":0,"x_max":0,"o":"m 386 433 b 614 697 590 433 614 429 b 386 965 614 978 575 965 l 386 965 z m 386 190 b 500 13 386 11 421 13 l 500 0 l 43 0 l 43 13 b 107 132 101 13 107 38 l 107 847 b 35 967 107 933 96 967 l 35 978 l 386 978 b 936 697 663 978 936 960 b 386 421 936 438 663 421 l 386 421 z "},"Q":{"ha":1117,"x_min":0,"x_max":0,"o":"m 907 -156 b 1097 -132 1017 -193 1067 -150 l 1104 -142 l 931 -292 b 458 -250 813 -383 686 -346 l 339 -200 b 178 -206 246 -165 208 -187 l 171 -196 b 669 -75 421 15 669 -75 z m 564 0 b 392 482 399 0 392 100 b 564 978 392 863 399 978 b 733 482 728 978 733 863 b 564 0 733 100 728 0 z m 564 990 b 57 482 258 990 57 757 b 564 -12 57 206 258 -12 b 1071 482 869 -12 1071 206 b 564 990 1071 757 869 990 z "},"R":{"ha":1074,"x_min":0,"x_max":0,"o":"m 422 464 l 379 464 l 379 965 l 422 965 b 621 713 585 965 621 978 b 422 464 621 461 603 464 z m 931 176 b 622 461 863 426 782 461 b 947 713 756 461 947 504 b 422 978 947 944 699 978 l 28 978 l 28 967 b 100 843 89 967 100 929 l 100 157 b 28 13 100 15 88 13 l 28 0 l 443 0 l 443 13 b 379 157 385 13 379 21 l 379 451 l 444 451 b 629 321 444 451 611 460 b 792 0 663 63 693 0 l 1068 0 l 1068 13 b 931 176 1032 15 958 71 z "},"S":{"ha":860,"x_min":0,"x_max":0,"o":"m 610 551 l 396 693 b 408 978 215 811 258 978 b 725 693 631 978 697 793 l 738 693 l 738 926 b 408 990 738 926 646 990 b 104 885 181 990 104 885 b 232 443 -14 736 35 567 l 446 308 b 422 0 613 185 571 0 b 61 325 204 0 83 231 l 49 325 l 49 58 b 422 -12 49 58 153 -12 b 738 101 663 -12 738 101 b 610 551 842 253 793 431 z "},"T":{"ha":1058,"x_min":0,"x_max":0,"o":"m 28 978 l 28 665 l 39 665 b 367 965 46 825 250 965 l 382 965 l 382 157 b 319 13 382 63 375 13 l 319 0 l 729 0 l 729 13 b 667 157 674 13 667 63 l 667 965 l 682 965 b 1010 665 797 965 1003 825 l 1021 665 l 1021 978 z "},"U":{"ha":1022,"x_min":0,"x_max":0,"o":"m 444 -12 b 811 304 689 -12 811 121 l 811 665 b 996 965 811 779 840 965 l 994 978 l 631 978 l 631 965 b 799 665 763 965 799 779 l 799 304 b 575 71 799 174 724 71 b 357 304 443 71 357 140 l 357 843 b 414 965 357 943 354 965 l 414 978 l 17 978 l 17 965 b 72 843 78 965 72 928 l 72 314 b 444 -12 72 88 256 -12 z "},"V":{"ha":1121,"x_min":0,"x_max":0,"o":"m 667 978 l 667 967 b 817 679 833 967 858 782 l 674 326 l 458 806 b 478 967 458 806 382 967 l 478 978 l 15 978 l 15 967 b 125 854 54 964 75 965 b 517 0 125 854 144 818 l 557 0 l 831 679 b 1088 967 939 924 1028 967 l 1088 978 z "},"W":{"ha":1585,"x_min":0,"x_max":0,"o":"m 1171 978 l 1171 967 b 1308 679 1313 967 1343 778 l 1183 328 l 975 806 b 993 967 975 806 904 967 l 993 978 l 560 978 l 560 967 b 663 854 596 964 615 965 b 756 639 663 854 671 836 l 644 329 l 435 806 b 453 967 435 806 364 967 l 453 978 l 19 978 l 19 967 b 122 854 56 964 75 965 b 490 0 122 854 140 818 l 540 0 l 763 622 b 1031 0 818 496 901 301 l 1081 0 l 1324 679 b 1565 967 1425 924 1510 967 l 1565 978 z "},"X":{"ha":1161,"x_min":0,"x_max":0,"o":"m 978 146 b 672 585 978 146 807 393 l 747 689 b 1076 967 944 964 1042 963 l 1076 978 l 692 978 l 692 967 b 739 697 861 967 783 758 b 667 596 696 636 667 596 l 488 847 b 510 967 421 940 465 967 l 510 978 l 19 978 l 19 967 b 179 829 56 963 96 938 l 490 383 l 417 279 b 64 11 197 0 97 14 l 64 0 l 492 0 l 492 11 b 425 272 350 11 367 189 l 497 374 l 656 143 b 664 11 656 143 742 11 l 664 0 l 1136 0 l 1136 11 b 978 146 1100 14 1054 44 z "},"Y":{"ha":1086,"x_min":0,"x_max":0,"o":"m 657 465 l 454 810 b 431 968 360 969 375 968 l 431 978 l 13 978 l 13 968 b 119 858 49 964 58 964 b 390 383 119 858 186 744 l 390 157 b 339 13 390 63 397 13 l 339 0 l 713 0 l 713 13 b 664 157 654 13 664 63 l 664 454 l 776 682 b 1063 967 875 879 976 967 l 1063 978 l 660 978 l 660 967 b 765 688 831 967 797 754 b 657 465 726 603 657 465 z "},"Z":{"ha":933,"x_min":0,"x_max":0,"o":"m 883 978 l 85 978 l 67 697 l 78 697 b 500 965 100 864 260 965 l 565 965 l 35 0 l 853 0 l 874 324 l 863 324 b 404 13 835 78 672 13 l 390 13 z "},"[":{"ha":522,"x_min":0,"x_max":0,"o":"m 157 1021 l 157 -203 l 497 -203 l 497 -189 b 350 -83 425 -189 350 -185 l 350 889 b 497 1008 350 1006 422 1008 l 497 1021 z "},"\\":{"ha":669,"x_min":0,"x_max":0,"o":"m 451 -28 l 640 -28 l 208 1021 l 19 1021 z "},"]":{"ha":522,"x_min":0,"x_max":0,"o":"m 15 1021 l 15 1006 b 163 889 90 1006 163 1006 l 163 -83 b 15 -189 163 -185 88 -189 l 15 -203 l 356 -203 l 356 1021 z "},"^":{"ha":842,"x_min":0,"x_max":0,"o":"m 458 978 l 385 978 l 124 522 l 200 522 l 421 718 l 646 522 l 715 522 z "},"_":{"ha":778,"x_min":0,"x_max":0,"o":"m 0 -68 l 0 -208 l 778 -208 l 778 -68 z "},"`":{"ha":682,"x_min":0,"x_max":0,"o":"m 272 1000 l 47 931 l 469 774 l 583 774 z "},"a":{"ha":788,"x_min":0,"x_max":0,"o":"m 417 125 b 358 72 401 92 382 72 b 304 164 303 72 304 164 b 417 339 304 229 303 314 z m 756 96 b 714 72 749 72 714 72 b 647 169 647 69 647 169 l 647 376 b 364 654 647 540 546 654 b 233 625 364 654 296 658 b 140 554 182 597 157 572 b 124 451 117 529 110 488 b 251 397 144 401 201 378 b 306 526 303 419 326 475 b 256 579 294 551 279 571 b 239 614 208 596 239 614 b 417 442 335 664 417 586 l 417 353 b 57 129 169 294 57 268 b 231 -12 57 11 178 -12 b 418 113 329 -12 400 40 b 585 -12 431 -12 585 -12 b 764 89 672 -12 744 28 z "},"b":{"ha":921,"x_min":0,"x_max":0,"o":"m 440 0 b 325 244 357 0 325 86 l 325 392 b 439 613 325 499 346 613 b 578 313 539 613 578 475 b 440 0 578 90 518 0 z m 564 654 b 325 549 435 654 365 618 l 325 1036 l 19 978 l 19 967 b 90 878 76 946 90 925 l 90 7 b 283 49 90 -15 239 19 b 496 -12 321 14 386 -12 b 857 332 674 -12 857 57 b 564 654 857 504 756 654 z "},"c":{"ha":715,"x_min":0,"x_max":0,"o":"m 442 654 b 63 324 179 654 63 514 b 396 -12 63 128 214 -12 b 665 181 569 -12 665 94 l 656 185 b 515 111 636 138 585 111 b 335 342 399 111 335 192 b 449 642 335 528 369 642 b 535 589 532 642 550 594 b 482 533 511 579 493 561 b 543 403 461 481 489 421 b 675 464 596 382 657 410 b 654 569 686 501 678 544 b 442 654 621 607 550 654 z "},"d":{"ha":925,"x_min":0,"x_max":0,"o":"m 600 165 b 485 75 588 124 538 75 b 347 349 383 75 347 174 b 469 642 347 585 401 642 b 600 444 540 642 600 572 z m 835 125 l 835 1036 l 529 978 l 529 967 b 600 878 586 946 600 926 l 600 593 b 414 654 575 628 522 654 b 65 317 214 654 65 547 b 369 -12 65 99 176 -12 b 600 138 468 -12 578 39 l 600 14 b 639 -11 600 14 600 -18 l 906 24 l 906 35 b 835 125 849 42 835 57 z "},"e":{"ha":746,"x_min":0,"x_max":0,"o":"m 401 654 b 51 319 231 654 51 556 b 381 -12 51 132 199 -12 b 674 189 554 -12 656 86 l 661 192 b 471 47 633 74 540 32 b 311 335 378 68 311 124 l 689 335 b 401 654 689 596 549 654 z m 311 347 b 407 642 311 481 343 642 b 488 347 469 642 488 522 z "},"f":{"ha":539,"x_min":0,"x_max":0,"o":"m 343 157 l 343 629 l 492 629 l 492 642 l 343 642 b 456 1021 343 885 340 1021 b 482 983 504 1021 508 990 b 426 944 458 978 439 965 b 453 815 397 900 410 843 b 582 842 496 788 554 800 b 588 949 601 874 604 918 b 433 1032 560 1000 499 1032 b 107 642 254 1032 107 967 l 17 642 l 17 629 l 107 629 l 107 157 b 53 11 107 86 106 26 l 53 0 l 400 0 l 400 11 b 343 157 350 25 343 81 z "},"g":{"ha":824,"x_min":0,"x_max":0,"o":"m 710 674 b 594 592 678 668 638 644 b 363 654 551 629 475 654 b 75 446 138 654 75 558 b 213 260 75 392 97 300 b 86 89 82 203 86 89 b 164 -31 86 26 121 -10 b 40 -276 96 -61 -22 -140 b 549 -294 93 -392 396 -399 b 694 -96 686 -200 694 -96 b 464 174 728 169 553 174 l 269 174 b 228 256 133 174 190 233 b 363 238 265 243 306 238 b 650 446 608 238 650 372 b 601 585 650 497 636 550 b 650 594 625 604 653 608 b 671 533 646 574 656 551 b 793 525 703 499 758 493 b 800 647 829 558 833 613 b 710 674 776 671 739 681 z m 307 -61 l 496 -61 b 619 -132 597 -61 619 -132 b 611 -224 619 -132 640 -192 b 328 -250 588 -250 485 -272 b 175 -37 328 -250 31 -194 b 307 -61 229 -60 292 -61 z m 363 249 b 307 446 319 249 307 290 b 363 642 307 601 311 642 b 418 446 413 642 418 601 b 363 249 418 290 404 249 z "},"h":{"ha":825,"x_min":0,"x_max":0,"o":"m 743 158 l 743 442 b 515 654 743 608 626 654 b 326 513 436 654 360 590 l 326 1036 l 17 978 l 17 967 b 90 878 74 946 90 926 l 90 157 b 36 11 90 86 89 26 l 36 0 l 383 0 l 383 11 b 326 157 333 25 326 81 l 326 493 b 413 553 344 525 379 553 b 508 436 479 554 508 515 l 508 158 b 453 11 508 88 506 26 l 453 0 l 800 0 l 800 11 b 743 158 751 24 743 82 z "},"i":{"ha":453,"x_min":0,"x_max":0,"o":"m 211 690 b 344 822 285 690 344 749 b 211 954 344 896 285 954 b 79 822 138 954 79 896 b 211 690 79 749 138 690 z m 344 157 l 344 654 l 36 596 l 36 585 b 108 496 93 564 108 544 l 108 157 b 54 11 108 86 107 26 l 54 0 l 401 0 l 401 11 b 344 157 351 25 344 81 z "},"j":{"ha":436,"x_min":0,"x_max":0,"o":"m 213 693 b 346 825 286 693 346 751 b 213 957 346 899 286 957 b 81 825 139 957 81 899 b 213 693 81 751 139 693 z m 40 585 b 110 482 97 554 110 529 l 110 38 b 25 -306 110 38 110 -285 l 25 -317 b 344 69 163 -282 344 -193 l 344 654 l 40 596 z "},"k":{"ha":908,"x_min":0,"x_max":0,"o":"m 725 118 l 492 415 b 878 631 617 544 799 631 l 878 642 l 500 642 l 500 631 b 510 451 588 631 571 515 l 347 285 b 428 164 347 285 386 224 b 629 0 521 25 533 0 l 886 0 l 886 13 b 725 118 824 13 771 54 z m 322 157 l 322 1036 l 13 978 l 13 967 b 86 878 69 946 86 926 l 86 157 b 32 11 86 85 85 26 l 32 0 l 379 0 l 379 11 b 322 157 329 25 322 81 z "},"l":{"ha":435,"x_min":0,"x_max":0,"o":"m 336 157 l 336 1036 l 26 978 l 26 967 b 100 878 83 946 100 926 l 100 157 b 46 11 100 85 99 26 l 46 0 l 393 0 l 393 11 b 336 157 343 25 336 81 z "},"m":{"ha":1151,"x_min":0,"x_max":0,"o":"m 1068 158 l 1068 443 b 864 654 1068 610 975 654 b 688 511 782 654 718 592 b 488 654 669 619 585 654 b 319 522 413 654 351 594 l 319 654 l 11 596 l 11 585 b 83 496 68 564 83 544 l 83 157 b 29 11 83 85 82 26 l 29 0 l 376 0 l 376 11 b 319 157 326 25 319 81 l 319 501 b 394 554 338 531 364 554 b 457 438 444 554 457 517 l 457 158 b 401 11 457 88 454 26 l 401 0 l 749 0 l 749 11 b 692 158 700 24 692 82 l 692 443 b 689 492 692 460 692 468 b 771 554 707 525 736 554 b 833 438 819 554 833 517 l 833 158 b 778 11 833 88 831 26 l 778 0 l 1125 0 l 1125 11 b 1068 158 1076 24 1068 82 z "},"n":{"ha":824,"x_min":0,"x_max":0,"o":"m 732 158 l 732 443 b 504 654 732 610 615 654 b 319 519 429 654 356 593 l 319 654 l 11 596 l 11 585 b 83 496 68 564 83 544 l 83 157 b 29 11 83 85 82 26 l 29 0 l 376 0 l 376 11 b 319 157 326 25 319 81 l 319 500 b 401 554 339 529 371 554 b 497 438 468 554 497 517 l 497 158 b 442 11 497 88 494 26 l 442 0 l 789 0 l 789 11 b 732 158 740 24 732 82 z "},"o":{"ha":826,"x_min":0,"x_max":0,"o":"m 415 654 b 57 321 167 654 57 504 b 415 -12 57 139 167 -12 b 774 321 664 -12 774 139 b 415 654 774 504 664 654 z m 415 0 b 338 321 339 0 338 69 b 415 642 338 572 339 642 b 492 321 490 642 492 572 b 415 0 492 69 490 0 z "},"p":{"ha":919,"x_min":0,"x_max":0,"o":"m 443 0 b 329 193 369 0 336 68 l 329 433 b 443 607 335 526 361 607 b 582 313 543 607 582 475 b 443 0 582 90 521 0 z m 568 654 b 329 546 439 654 368 614 l 329 654 l 21 596 l 21 585 b 93 496 78 564 93 544 l 93 -211 b 39 -356 93 -282 92 -340 l 39 -368 l 386 -368 l 386 -356 b 329 -211 336 -342 329 -287 l 329 19 b 500 -12 368 0 424 -12 b 861 332 678 -12 861 57 b 568 654 861 504 758 654 z "},"q":{"ha":914,"x_min":0,"x_max":0,"o":"m 486 35 b 349 349 385 35 349 174 b 472 642 349 585 406 642 b 600 479 538 642 592 585 l 600 132 b 486 35 600 78 538 35 z m 836 -211 l 836 635 b 650 606 836 667 736 660 b 415 654 599 638 524 654 b 67 317 215 654 67 547 b 371 -12 67 99 178 -12 b 600 75 479 -12 572 32 l 600 -211 b 546 -356 600 -282 599 -340 l 546 -368 l 893 -368 l 893 -356 b 836 -211 843 -342 836 -287 z "},"r":{"ha":710,"x_min":0,"x_max":0,"o":"m 642 622 b 508 644 606 654 547 663 b 326 460 467 625 425 608 l 326 654 l 17 596 l 17 585 b 90 496 74 564 90 544 l 90 157 b 36 11 90 86 89 26 l 36 0 l 383 0 l 383 11 b 326 157 333 25 326 81 l 326 433 b 428 511 383 519 428 529 b 472 425 428 479 446 450 b 656 439 528 379 608 385 b 642 622 703 492 696 575 z "},"s":{"ha":618,"x_min":0,"x_max":0,"o":"m 435 388 l 294 475 b 307 642 174 551 217 642 b 521 474 388 642 496 599 l 533 474 l 533 615 b 307 654 533 615 467 654 b 97 588 149 654 97 588 b 178 269 13 493 47 356 l 318 185 b 303 0 424 115 401 0 b 68 217 211 0 96 88 l 56 217 l 56 35 b 303 -12 56 35 135 -12 b 517 63 464 -12 517 63 b 435 388 593 154 561 311 z "},"t":{"ha":554,"x_min":0,"x_max":0,"o":"m 444 89 b 336 204 364 89 336 126 l 336 629 l 515 629 l 515 642 l 336 642 l 336 857 l 103 828 l 103 642 l 15 642 l 15 629 l 103 629 l 103 200 b 338 -12 103 32 228 -12 b 538 125 440 -12 521 51 l 529 131 b 444 89 513 111 485 89 z "},"u":{"ha":851,"x_min":0,"x_max":0,"o":"m 756 124 l 756 654 l 456 626 l 456 615 b 521 504 526 607 521 589 l 521 167 b 431 89 507 107 469 89 b 340 204 360 89 340 126 l 340 654 l 24 626 l 24 615 b 101 508 104 604 101 592 l 101 200 b 326 -12 101 33 217 -12 b 521 129 442 -12 510 57 l 521 15 b 560 -11 521 15 522 -17 l 826 25 l 826 36 b 756 124 768 43 756 57 z "},"v":{"ha":832,"x_min":0,"x_max":0,"o":"m 500 642 l 500 631 b 611 406 644 631 635 474 b 549 236 588 339 549 236 l 407 514 b 439 631 407 514 346 631 l 439 642 l 4 642 l 4 631 b 117 544 31 628 78 617 l 390 -12 l 467 -12 l 624 403 b 824 631 697 578 733 631 l 824 642 z "},"w":{"ha":1175,"x_min":0,"x_max":0,"o":"m 871 642 l 871 631 b 974 404 994 631 996 471 b 914 238 951 338 914 238 l 785 514 b 793 631 785 514 726 631 l 793 642 l 446 642 l 446 631 b 515 544 471 628 479 617 l 581 401 l 525 239 l 396 514 b 397 631 396 514 336 631 l 397 642 l 22 642 l 22 631 b 126 544 47 628 90 617 l 381 -12 l 453 -12 l 588 389 l 769 -12 l 839 -12 l 985 403 b 1169 631 1053 578 1086 631 l 1169 642 z "},"x":{"ha":915,"x_min":0,"x_max":0,"o":"m 796 82 l 556 417 l 606 493 b 876 631 660 578 769 631 l 876 642 l 531 642 l 531 631 b 590 492 683 631 590 492 l 547 428 l 472 521 b 490 631 422 586 451 631 l 490 642 l 15 642 l 15 631 b 136 569 39 628 82 628 l 364 253 l 311 183 b 39 11 235 76 131 11 l 39 0 l 413 0 l 413 11 b 324 176 206 11 324 176 l 372 243 l 461 121 b 482 11 463 119 546 11 l 482 0 l 907 0 l 907 11 b 796 82 883 14 843 18 z "},"y":{"ha":856,"x_min":0,"x_max":0,"o":"m 511 642 l 511 631 b 617 407 685 631 617 407 l 560 239 l 418 514 b 450 631 418 514 357 631 l 450 642 l 15 642 l 15 631 b 128 544 43 628 89 617 l 444 -86 l 444 -86 b 365 -178 406 -225 371 -199 b 304 -112 356 -149 335 -126 b 147 -172 244 -86 175 -112 b 207 -329 122 -232 147 -301 b 340 -315 247 -347 310 -340 b 456 -96 372 -289 413 -235 l 629 403 b 835 631 703 578 735 631 l 835 642 z "},"z":{"ha":735,"x_min":0,"x_max":0,"o":"m 685 642 l 88 642 l 81 458 l 92 458 b 399 629 124 550 213 629 l 40 0 l 644 0 l 657 211 l 646 211 b 349 13 626 156 557 13 z "},"{":{"ha":532,"x_min":0,"x_max":0,"o":"m 372 4 l 372 204 b 119 389 372 356 296 389 b 372 589 296 389 372 436 l 372 789 b 456 1015 372 933 386 1015 l 454 1021 b 178 789 263 1021 178 949 l 178 626 b 68 392 178 407 125 413 l 68 386 b 178 167 125 365 178 372 l 178 4 b 454 -228 178 -156 272 -228 l 456 -222 b 372 4 393 -222 372 -140 z "},"|":{"ha":347,"x_min":0,"x_max":0,"o":"m 101 -228 l 256 -228 l 256 1021 l 101 1021 z "},"}":{"ha":522,"x_min":0,"x_max":0,"o":"m 72 -224 l 74 -229 b 350 3 256 -229 350 -157 l 350 165 b 460 385 350 371 403 364 l 460 390 b 350 625 403 411 350 406 l 350 788 b 74 1019 350 947 267 1019 l 72 1014 b 156 788 143 1014 156 932 l 156 588 b 408 388 156 435 233 388 b 156 203 233 388 156 354 l 156 3 b 72 -224 156 -142 136 -224 z "},"~":{"ha":900,"x_min":0,"x_max":0,"o":"m 510 229 b 811 421 510 229 693 165 l 806 422 b 553 413 767 347 600 392 l 388 476 b 88 286 388 476 203 554 l 93 285 b 344 294 131 360 299 313 z "},"":{"ha":0,"x_min":0,"x_max":0,"o":""}," ":{"ha":389,"x_min":0,"x_max":0,"o":""},"¡":{"ha":497,"x_min":0,"x_max":0,"o":"m 176 419 l 121 -243 l 388 -243 l 336 419 z m 122 656 b 257 522 122 582 183 522 b 389 656 329 522 389 582 b 257 790 389 731 329 790 b 122 656 183 790 122 731 z "},"¢":{"ha":808,"x_min":0,"x_max":0,"o":"m 469 131 b 375 342 407 163 375 233 b 469 642 375 511 404 624 z m 522 533 b 583 403 501 481 529 421 b 715 464 636 382 697 410 b 694 569 726 501 718 544 b 482 654 661 607 590 654 l 482 824 l 469 824 l 469 654 b 103 324 215 650 103 511 b 469 -12 103 103 265 -12 l 469 -164 l 482 -164 l 482 -12 b 706 181 626 3 706 101 l 696 185 b 482 125 671 113 553 92 l 482 642 b 575 589 579 642 590 594 b 522 533 551 579 533 561 z "},"£":{"ha":979,"x_min":0,"x_max":0,"o":"m 383 89 b 228 0 360 49 300 0 b 92 92 210 0 99 1 b 253 165 88 147 149 208 b 383 89 293 147 335 121 z m 786 -3 b 901 218 786 -3 932 32 l 886 218 b 647 163 886 113 751 129 l 611 175 b 588 457 640 233 650 339 b 560 504 581 472 571 489 l 733 504 l 733 517 l 551 517 b 632 1000 321 914 419 1053 b 658 964 658 993 689 964 b 574 926 628 964 599 951 b 576 751 526 878 526 800 b 751 753 625 704 704 704 b 782 881 785 788 796 840 b 639 1011 761 929 726 974 b 247 517 464 1088 40 981 l 129 517 l 129 504 l 254 504 b 325 386 271 479 299 432 b 399 242 361 322 396 257 l 356 257 b 54 89 79 346 24 171 b 229 -12 90 -7 215 -12 b 461 43 331 -12 407 14 b 786 -3 547 -4 703 -28 z "},"¤":{"ha":850,"x_min":0,"x_max":0,"o":"m 757 479 b 696 674 757 551 735 619 l 819 796 l 739 876 l 615 754 b 422 815 561 793 493 815 b 228 754 350 815 283 793 l 106 876 l 25 796 l 147 674 b 86 479 110 619 86 551 b 147 286 86 407 110 342 l 25 164 l 106 82 l 228 206 b 422 144 283 167 350 144 b 615 206 493 144 561 167 l 739 82 l 819 164 l 696 286 b 757 479 735 342 757 407 z m 422 322 b 264 479 335 322 264 393 b 422 638 264 567 335 638 b 579 479 508 638 579 567 b 422 322 579 393 508 322 z "},"¥":{"ha":989,"x_min":0,"x_max":0,"o":"m 611 978 l 611 967 b 717 688 782 967 749 754 b 607 465 678 603 607 465 l 406 810 b 382 968 313 969 326 968 l 382 978 l -36 978 l -36 968 b 71 858 0 964 10 964 b 301 456 71 858 128 760 l 144 456 l 144 443 l 308 443 b 342 383 319 424 331 404 l 342 318 l 144 318 l 144 306 l 342 306 l 342 157 b 290 13 342 63 349 13 l 290 0 l 664 0 l 664 13 b 615 157 606 13 615 63 l 615 306 l 833 306 l 833 318 l 615 318 l 615 443 l 833 443 l 833 456 l 615 456 l 728 682 b 1014 967 826 879 928 967 l 1014 978 z "},"¦":{"ha":349,"x_min":0,"x_max":0,"o":"m 253 1021 l 99 1021 l 99 500 l 253 500 z m 253 258 l 99 258 l 99 -265 l 253 -265 z "},"§":{"ha":815,"x_min":0,"x_max":0,"o":"m 578 118 b 579 575 825 239 768 456 l 407 676 b 292 849 318 732 285 785 b 471 986 300 935 365 994 b 510 950 510 981 519 953 b 451 896 485 942 465 922 b 503 756 426 843 450 781 b 644 807 557 731 618 754 b 631 917 661 843 654 889 b 474 997 611 942 550 990 b 125 775 376 1007 147 1010 b 251 524 113 656 158 579 b 250 67 3 403 60 186 l 422 -35 b 538 -207 511 -90 544 -143 b 357 -340 529 -293 463 -349 b 319 -308 318 -335 310 -311 b 376 -254 343 -300 364 -281 b 325 -114 401 -201 378 -139 b 183 -165 271 -89 210 -112 b 197 -275 168 -201 174 -247 b 356 -353 217 -300 279 -346 b 704 -133 451 -362 681 -368 b 578 118 715 -14 667 56 z m 363 260 b 261 515 283 313 121 396 b 467 382 274 504 404 424 b 568 126 544 329 707 246 b 363 260 556 138 425 218 z "},"¨":{"ha":519,"x_min":0,"x_max":0,"o":"m 226 910 b 131 1006 226 963 182 1006 b 32 910 76 1006 32 963 b 131 811 32 856 76 811 b 226 910 182 811 226 856 z m 488 910 b 392 1006 488 963 443 1006 b 293 910 338 1006 293 963 b 392 811 293 856 338 811 b 488 910 443 811 488 856 z "},"©":{"ha":1132,"x_min":0,"x_max":0,"o":"m 565 1036 b 42 513 275 1036 42 801 b 565 -11 42 224 275 -11 b 1089 513 854 -11 1089 224 b 565 1036 1089 801 854 1036 z m 565 97 b 149 513 336 97 149 283 b 565 929 149 742 336 929 b 981 513 793 929 981 742 b 565 97 981 283 793 97 z m 764 418 b 596 236 738 261 650 236 b 472 507 511 236 472 290 b 596 779 472 724 508 779 b 764 596 654 779 740 760 l 776 596 l 781 756 b 596 792 763 771 699 792 b 278 507 428 792 278 685 b 596 224 278 329 428 224 b 781 260 681 224 760 244 l 776 418 z "},"ª":{"ha":456,"x_min":0,"x_max":0,"o":"m 215 708 b 185 676 208 692 197 676 b 156 721 156 676 156 721 b 215 808 156 756 156 796 z m 389 688 b 372 674 385 675 372 674 b 336 725 336 672 336 725 l 336 833 b 188 979 336 919 283 979 b 114 964 188 979 142 979 b 69 928 90 951 78 939 b 61 874 58 913 54 892 b 129 844 72 847 101 835 b 157 913 156 856 168 885 b 131 939 151 926 143 936 b 124 956 107 946 124 956 b 215 868 175 982 215 943 l 215 821 b 26 704 86 790 26 776 b 118 629 26 642 89 629 b 218 686 169 629 207 651 b 304 629 226 629 304 629 b 400 683 350 629 390 650 z "},"«":{"ha":1001,"x_min":0,"x_max":0,"o":"m 518 701 l 121 369 l 518 46 l 518 114 l 354 369 l 518 633 z m 878 701 l 481 369 l 878 46 l 878 114 l 715 369 l 878 633 z "},"¬":{"ha":961,"x_min":0,"x_max":0,"o":"m 57 581 l 57 411 l 728 411 l 728 67 l 899 67 l 899 581 z "},"­":{"ha":617,"x_min":0,"x_max":0,"o":"m 526 257 l 526 449 l 89 449 l 89 257 z "},"®":{"ha":1138,"x_min":0,"x_max":0,"o":"m 567 1036 b 43 513 278 1036 43 801 b 567 -11 43 224 278 -11 b 1090 513 856 -11 1090 224 b 567 1036 1090 801 856 1036 z m 567 97 b 151 513 338 97 151 283 b 567 929 151 742 338 929 b 982 513 796 929 982 742 b 567 97 982 283 796 97 z m 522 503 l 499 503 l 499 763 l 522 763 b 628 628 608 763 628 763 b 522 503 628 500 618 503 z m 793 347 b 629 499 757 481 714 499 b 803 633 700 499 803 522 b 522 775 803 757 669 775 l 311 775 l 311 769 b 350 703 343 769 350 749 l 350 343 b 311 265 350 268 343 265 l 311 253 l 533 253 l 533 265 b 499 343 501 265 499 271 l 499 490 l 533 490 b 632 424 533 490 624 490 b 719 253 650 286 667 253 l 867 253 l 867 265 b 793 347 847 267 808 290 z "},"¯":{"ha":500,"x_min":0,"x_max":0,"o":"m -22 932 l -22 793 l 524 793 l 524 932 z "},"°":{"ha":529,"x_min":0,"x_max":0,"o":"m 260 1024 b 79 843 160 1024 79 944 b 260 665 79 743 160 665 b 440 843 360 665 440 743 b 260 1024 440 944 360 1024 z m 347 842 b 261 757 347 794 308 757 b 175 842 214 757 175 794 b 261 928 175 889 214 928 b 347 842 308 928 347 889 z "},"±":{"ha":844,"x_min":0,"x_max":0,"o":"m 486 560 l 486 743 l 347 743 l 347 560 l 57 560 l 57 419 l 347 419 l 347 201 l 486 201 l 486 419 l 778 419 l 778 560 z m 57 0 l 778 0 l 778 139 l 57 139 z "},"²":{"ha":389,"x_min":0,"x_max":0,"o":"m 315 661 b 258 625 301 636 281 625 l 128 625 l 143 646 b 303 865 178 689 303 768 b 182 978 303 922 246 978 b 57 804 72 978 17 881 l 68 810 b 165 696 44 928 318 919 l 39 526 l 290 526 l 328 661 z "},"³":{"ha":401,"x_min":0,"x_max":0,"o":"m 346 663 b 232 768 346 713 301 765 b 183 978 351 826 304 978 b 68 861 90 978 53 910 l 74 863 b 164 886 79 899 136 906 b 118 756 204 858 201 769 l 118 750 b 217 650 196 750 210 690 b 160 528 229 579 207 528 b 108 547 108 528 100 547 b 143 571 122 550 135 557 b 131 646 161 594 154 628 b 54 632 106 663 71 657 b 50 576 42 615 42 592 b 160 522 71 540 104 522 b 346 663 240 522 346 539 z "},"´":{"ha":706,"x_min":0,"x_max":0,"o":"m 121 775 l 235 775 l 657 932 l 432 1001 z "},"µ":{"ha":858,"x_min":0,"x_max":0,"o":"m 758 124 l 758 654 l 458 626 l 458 615 b 524 504 529 607 524 589 l 524 181 b 444 90 514 126 483 90 b 342 206 363 90 342 126 l 342 654 l 28 626 l 28 615 b 93 504 99 607 93 589 l 93 -340 b 133 -367 93 -340 93 -374 l 414 -331 l 414 -319 b 342 -231 356 -314 342 -299 l 342 -12 b 524 139 385 -12 501 21 l 524 15 b 563 -11 524 15 525 -18 l 831 24 l 831 36 b 758 124 772 42 758 56 z "},"¶":{"ha":1106,"x_min":0,"x_max":0,"o":"m 994 964 l 994 978 l 714 978 l 714 -368 l 985 -368 l 985 -356 b 881 -150 918 -356 881 -258 l 881 767 b 994 964 881 864 925 964 z m 421 978 l 419 978 b 51 663 253 976 51 928 b 419 353 51 394 231 353 l 419 -150 b 233 -356 419 -331 300 -356 l 233 -368 l 588 -368 l 588 978 z "},"·":{"ha":403,"x_min":0,"x_max":0,"o":"m 294 415 b 203 507 294 465 253 507 b 111 415 153 507 111 465 b 203 324 111 365 153 324 b 294 415 253 324 294 365 z "},"¸":{"ha":386,"x_min":0,"x_max":0,"o":"m 178 -6 l 118 -157 b 238 -240 222 -137 238 -218 b 183 -303 238 -269 221 -303 b 151 -287 153 -303 143 -292 b 176 -257 164 -283 171 -274 b 138 -199 182 -231 165 -204 b 76 -235 110 -192 83 -208 b 94 -285 74 -254 82 -275 b 190 -315 107 -296 131 -315 b 347 -207 253 -315 336 -300 b 160 -87 356 -128 290 -58 l 190 -6 z "},"¹":{"ha":322,"x_min":0,"x_max":0,"o":"m 225 590 l 225 978 l 167 978 l 47 875 l 57 864 b 113 858 57 864 113 907 l 113 590 b 83 540 113 560 110 540 l 83 528 l 249 528 l 249 540 b 225 590 226 540 225 558 z "},"º":{"ha":517,"x_min":0,"x_max":0,"o":"m 254 982 b 47 744 111 982 47 860 b 254 518 47 631 111 518 b 463 744 400 518 463 631 b 254 982 463 860 400 982 z m 254 531 b 210 744 211 531 210 588 b 254 969 210 903 211 969 b 299 744 299 969 299 903 b 254 531 299 588 299 531 z "},"»":{"ha":999,"x_min":0,"x_max":0,"o":"m 475 633 l 639 369 l 475 114 l 475 46 l 872 369 l 475 701 z m 115 633 l 278 369 l 115 114 l 115 46 l 513 369 l 115 701 z "},"¼":{"ha":944,"x_min":0,"x_max":0,"o":"m 800 990 l 25 51 l 163 51 l 939 990 z m 267 592 l 267 1033 l 200 1033 l 64 917 l 75 904 b 138 897 75 904 138 953 l 138 592 b 104 535 138 557 135 535 l 104 521 l 293 521 l 293 535 b 267 592 268 535 267 556 z m 808 140 l 808 190 l 749 190 l 749 504 l 715 511 l 453 153 l 453 140 l 619 140 l 619 100 b 588 13 619 15 617 13 l 588 0 l 781 0 l 781 13 b 749 104 750 13 749 14 l 749 140 z m 619 190 l 521 190 b 525 231 506 190 496 192 l 619 361 z "},"½":{"ha":933,"x_min":0,"x_max":0,"o":"m 863 161 b 790 119 846 132 815 119 l 661 119 l 674 136 b 838 394 714 185 838 283 b 700 514 838 460 772 514 b 557 315 588 521 510 403 l 568 322 b 690 193 561 438 850 429 l 547 0 l 824 0 l 868 161 z m 800 990 l 25 51 l 163 51 l 939 990 z m 267 592 l 267 1033 l 200 1033 l 64 917 l 75 904 b 138 897 75 904 138 953 l 138 592 b 104 535 138 557 135 535 l 104 521 l 293 521 l 293 535 b 267 592 268 535 267 556 z "},"¾":{"ha":911,"x_min":0,"x_max":0,"o":"m 800 990 l 25 51 l 163 51 l 939 990 z m 808 140 l 808 190 l 749 190 l 749 504 l 715 511 l 453 153 l 453 140 l 619 140 l 619 100 b 588 13 619 15 617 13 l 588 0 l 781 0 l 781 13 b 749 104 750 13 749 14 l 749 140 z m 619 190 l 521 190 b 525 231 506 190 496 192 l 619 361 z m 376 678 b 247 799 376 735 326 794 b 192 1038 383 865 329 1038 b 60 904 85 1038 43 960 l 72 907 b 169 933 78 949 138 956 b 117 788 215 901 213 804 l 117 775 b 229 664 206 775 222 710 b 164 531 243 583 218 531 b 113 551 106 531 103 549 b 146 574 122 554 133 558 b 132 658 167 600 158 639 b 44 643 103 678 64 672 b 39 579 31 624 31 597 b 164 518 64 539 101 518 b 376 678 257 518 376 538 z "},"¿":{"ha":886,"x_min":0,"x_max":0,"o":"m 140 -132 b 647 -326 150 -339 424 -426 b 782 -158 733 -287 783 -211 b 742 -49 783 -119 775 -76 b 579 -57 693 -7 619 -10 b 593 -219 540 -106 544 -176 b 672 -246 617 -239 644 -250 b 640 -318 694 -243 689 -299 b 419 -132 528 -362 429 -256 b 483 131 408 -21 422 65 b 513 326 563 214 518 289 l 500 325 b 361 181 507 242 436 200 b 140 -132 281 160 132 71 z m 372 533 b 494 411 372 465 428 411 b 617 533 561 411 617 465 b 494 654 617 601 561 654 b 372 533 428 654 372 601 z "},"À":{"ha":1058,"x_min":0,"x_max":0,"o":"m 474 1247 l 249 1178 l 671 1021 l 785 1021 z m 531 282 l 268 282 l 392 594 z m 251 269 b 28 11 144 25 69 14 l 28 0 l 428 0 l 428 11 b 264 269 261 11 236 206 l 536 269 l 581 174 b 553 11 581 174 664 11 l 553 0 l 1039 0 l 1039 11 b 914 126 1011 14 964 15 b 539 978 914 126 890 172 l 532 978 z "},"Á":{"ha":1058,"x_min":0,"x_max":0,"o":"m 290 1021 l 404 1021 l 826 1178 l 601 1247 z m 531 282 l 268 282 l 392 594 z m 251 269 b 28 11 144 25 69 14 l 28 0 l 428 0 l 428 11 b 264 269 261 11 236 206 l 536 269 l 581 174 b 553 11 581 174 664 11 l 553 0 l 1039 0 l 1039 11 b 914 126 1011 14 964 15 b 539 978 914 126 890 172 l 532 978 z "},"Â":{"ha":1058,"x_min":0,"x_max":0,"o":"m 364 1021 l 536 1135 l 708 1021 l 765 1021 l 536 1289 l 307 1021 z m 531 282 l 268 282 l 392 594 z m 251 269 b 28 11 144 25 69 14 l 28 0 l 428 0 l 428 11 b 264 269 261 11 236 206 l 536 269 l 581 174 b 553 11 581 174 664 11 l 553 0 l 1039 0 l 1039 11 b 914 126 1011 14 964 15 b 539 978 914 126 890 172 l 532 978 z "},"Ã":{"ha":1058,"x_min":0,"x_max":0,"o":"m 606 1074 b 907 1251 606 1074 789 996 l 901 1253 b 649 1229 863 1178 696 1208 l 483 1293 b 183 1117 483 1293 299 1385 l 189 1115 b 440 1139 226 1190 394 1157 z m 531 282 l 268 282 l 392 594 z m 251 269 b 28 11 144 25 69 14 l 28 0 l 428 0 l 428 11 b 264 269 261 11 236 206 l 536 269 l 581 174 b 553 11 581 174 664 11 l 553 0 l 1039 0 l 1039 11 b 914 126 1011 14 964 15 b 539 978 914 126 890 172 l 532 978 z "},"Ä":{"ha":1058,"x_min":0,"x_max":0,"o":"m 497 1157 b 401 1253 497 1210 453 1253 b 303 1157 347 1253 303 1210 b 401 1058 303 1103 347 1058 b 497 1157 453 1058 497 1103 z m 758 1157 b 663 1253 758 1210 714 1253 b 564 1157 608 1253 564 1210 b 663 1058 564 1103 608 1058 b 758 1157 714 1058 758 1103 z m 531 282 l 268 282 l 392 594 z m 251 269 b 28 11 144 25 69 14 l 28 0 l 428 0 l 428 11 b 264 269 261 11 236 206 l 536 269 l 581 174 b 553 11 581 174 664 11 l 553 0 l 1039 0 l 1039 11 b 914 126 1011 14 964 15 b 539 978 914 126 890 172 l 532 978 z "},"Å":{"ha":1058,"x_min":0,"x_max":0,"o":"m 536 1276 b 590 1222 567 1276 590 1253 b 536 1167 590 1192 567 1167 b 482 1222 506 1167 482 1192 b 536 1276 482 1253 506 1276 z m 536 1361 b 393 1222 458 1361 393 1301 b 536 1081 393 1144 458 1081 b 679 1222 615 1081 679 1144 b 536 1361 679 1301 615 1361 z m 531 282 l 268 282 l 392 594 z m 251 269 b 28 11 144 25 69 14 l 28 0 l 428 0 l 428 11 b 264 269 261 11 236 206 l 536 269 l 581 174 b 553 11 581 174 664 11 l 553 0 l 1039 0 l 1039 11 b 914 126 1011 14 964 15 b 539 978 914 126 890 172 l 532 978 z "},"Æ":{"ha":1467,"x_min":0,"x_max":0,"o":"m 313 282 l 657 871 b 664 786 663 844 664 817 l 664 282 z m 1354 272 b 957 13 1354 -1 957 13 l 935 13 l 935 489 l 1019 489 b 1183 324 1022 489 1168 492 l 1196 324 l 1196 664 l 1183 664 b 1019 501 1168 497 1022 501 l 935 501 l 935 965 l 957 965 b 1336 693 957 965 1336 965 l 1349 693 l 1349 978 l 583 978 l 583 967 b 653 890 619 967 642 935 l 289 268 b 17 11 136 25 60 14 l 17 0 l 418 0 l 418 11 b 306 269 251 11 265 206 l 664 269 l 664 190 b 583 13 664 96 642 13 l 583 0 l 1367 0 l 1367 272 z "},"Ç":{"ha":1018,"x_min":0,"x_max":0,"o":"m 928 333 l 917 333 b 617 0 869 57 711 0 b 397 489 467 0 397 107 b 617 978 397 869 463 978 b 917 646 718 978 875 933 l 928 646 l 942 926 b 617 990 908 953 796 990 b 56 489 319 990 56 803 b 575 -12 56 189 296 4 l 521 -150 b 640 -233 625 -131 640 -211 b 586 -296 640 -262 624 -296 b 554 -281 556 -296 546 -285 b 579 -250 567 -276 574 -267 b 540 -192 585 -224 568 -197 b 479 -228 513 -185 486 -201 b 497 -278 476 -247 485 -268 b 593 -308 510 -289 533 -308 b 750 -200 656 -308 739 -293 b 563 -81 758 -121 693 -51 l 588 -12 b 942 53 774 -12 904 28 z "},"È":{"ha":949,"x_min":0,"x_max":0,"o":"m 385 1247 l 160 1178 l 582 1021 l 696 1021 z m 836 272 b 439 13 836 -3 439 13 l 389 13 l 389 488 l 501 488 b 665 324 503 488 650 490 l 678 324 l 678 664 l 665 664 b 501 500 650 496 503 500 l 389 500 l 389 965 l 439 965 b 818 693 439 965 818 964 l 831 693 l 831 978 l 38 978 l 38 967 b 118 786 99 967 118 872 l 118 190 b 38 13 118 96 96 13 l 38 0 l 849 0 l 849 272 z "},"É":{"ha":949,"x_min":0,"x_max":0,"o":"m 176 1021 l 290 1021 l 713 1178 l 488 1247 z m 836 272 b 439 13 836 -3 439 13 l 389 13 l 389 488 l 501 488 b 665 324 503 488 650 490 l 678 324 l 678 664 l 665 664 b 501 500 650 496 503 500 l 389 500 l 389 965 l 439 965 b 818 693 439 965 818 964 l 831 693 l 831 978 l 38 978 l 38 967 b 118 786 99 967 118 872 l 118 190 b 38 13 118 96 96 13 l 38 0 l 849 0 l 849 272 z "},"Ê":{"ha":949,"x_min":0,"x_max":0,"o":"m 263 1021 l 435 1135 l 607 1021 l 664 1021 l 435 1289 l 206 1021 z m 836 272 b 439 13 836 -3 439 13 l 389 13 l 389 488 l 501 488 b 665 324 503 488 650 490 l 678 324 l 678 664 l 665 664 b 501 500 650 496 503 500 l 389 500 l 389 965 l 439 965 b 818 693 439 965 818 964 l 831 693 l 831 978 l 38 978 l 38 967 b 118 786 99 967 118 872 l 118 190 b 38 13 118 96 96 13 l 38 0 l 849 0 l 849 272 z "},"Ë":{"ha":949,"x_min":0,"x_max":0,"o":"m 418 1157 b 322 1253 418 1210 374 1253 b 224 1157 268 1253 224 1210 b 322 1058 224 1103 268 1058 b 418 1157 374 1058 418 1103 z m 679 1157 b 583 1253 679 1210 635 1253 b 485 1157 529 1253 485 1210 b 583 1058 485 1103 529 1058 b 679 1157 635 1058 679 1103 z m 836 272 b 439 13 836 -3 439 13 l 389 13 l 389 488 l 501 488 b 665 324 503 488 650 490 l 678 324 l 678 664 l 665 664 b 501 500 650 496 503 500 l 389 500 l 389 965 l 439 965 b 818 693 439 965 818 964 l 831 693 l 831 978 l 38 978 l 38 967 b 118 786 99 967 118 872 l 118 190 b 38 13 118 96 96 13 l 38 0 l 849 0 l 849 272 z "},"Ì":{"ha":563,"x_min":0,"x_max":0,"o":"m 54 978 l 54 967 b 144 843 114 967 144 965 l 144 157 b 54 13 144 25 113 13 l 54 0 l 513 0 l 513 13 b 422 157 454 13 422 25 l 422 843 b 513 967 422 965 454 967 l 513 978 z m 221 1247 l -4 1178 l 418 1021 l 532 1021 z "},"Í":{"ha":563,"x_min":0,"x_max":0,"o":"m 54 978 l 54 967 b 144 843 114 967 144 965 l 144 157 b 54 13 144 25 113 13 l 54 0 l 513 0 l 513 13 b 422 157 454 13 422 25 l 422 843 b 513 967 422 965 454 967 l 513 978 z m 40 1021 l 154 1021 l 576 1178 l 351 1247 z "},"Î":{"ha":563,"x_min":0,"x_max":0,"o":"m 54 978 l 54 967 b 144 843 114 967 144 965 l 144 157 b 54 13 144 25 113 13 l 54 0 l 513 0 l 513 13 b 422 157 454 13 422 25 l 422 843 b 513 967 422 965 454 967 l 513 978 z m 111 1021 l 283 1135 l 456 1021 l 513 1021 l 283 1289 l 54 1021 z "},"Ï":{"ha":563,"x_min":0,"x_max":0,"o":"m 54 978 l 54 967 b 144 843 114 967 144 965 l 144 157 b 54 13 144 25 113 13 l 54 0 l 513 0 l 513 13 b 422 157 454 13 422 25 l 422 843 b 513 967 422 965 454 967 l 513 978 z m 249 1157 b 153 1253 249 1210 204 1253 b 54 1157 99 1253 54 1210 b 153 1058 54 1103 99 1058 b 249 1157 204 1058 249 1103 z m 510 1157 b 414 1253 510 1210 465 1253 b 315 1157 360 1253 315 1210 b 414 1058 315 1103 360 1058 b 510 1157 465 1058 510 1103 z "},"Ð":{"ha":1143,"x_min":0,"x_max":0,"o":"m 472 978 l 61 978 l 61 965 b 143 786 122 965 143 872 l 143 497 l 29 497 l 29 485 l 143 485 l 143 190 b 61 13 143 96 121 13 l 61 0 l 472 0 b 1075 485 749 0 1075 79 b 472 978 1075 892 749 978 z m 472 13 l 411 13 l 411 485 l 593 485 l 593 497 l 411 497 l 411 965 l 472 965 b 726 485 643 965 726 929 b 472 13 726 32 636 13 z "},"Ñ":{"ha":1167,"x_min":0,"x_max":0,"o":"m 653 1074 b 954 1251 653 1074 836 996 l 949 1253 b 696 1229 910 1178 743 1208 l 531 1293 b 231 1117 531 1293 346 1385 l 236 1115 b 488 1139 274 1190 442 1157 z m 939 0 l 939 667 b 1149 967 939 796 976 967 l 1149 978 l 728 978 l 728 967 b 926 667 882 967 926 796 l 926 296 l 454 978 l 11 978 l 11 967 b 185 856 47 964 101 965 l 250 763 l 250 313 b 31 13 250 203 222 13 l 31 0 l 472 0 l 472 13 b 263 313 269 13 263 201 l 263 746 l 786 0 z "},"Ò":{"ha":1128,"x_min":0,"x_max":0,"o":"m 564 0 b 392 482 399 0 392 100 b 564 978 392 863 399 978 b 733 482 728 978 733 863 b 564 0 733 100 728 0 z m 564 990 b 57 482 258 990 57 757 b 564 -12 57 206 258 -12 b 1071 482 869 -12 1071 206 b 564 990 1071 757 869 990 z m 510 1247 l 285 1178 l 707 1021 l 821 1021 z "},"Ó":{"ha":1128,"x_min":0,"x_max":0,"o":"m 564 0 b 392 482 399 0 392 100 b 564 978 392 863 399 978 b 733 482 728 978 733 863 b 564 0 733 100 728 0 z m 564 990 b 57 482 258 990 57 757 b 564 -11 57 206 258 -11 b 1071 482 869 -11 1071 206 b 564 990 1071 757 869 990 z m 288 1021 l 401 1021 l 824 1178 l 599 1247 z "},"Ô":{"ha":1128,"x_min":0,"x_max":0,"o":"m 564 0 b 392 482 399 0 392 100 b 564 978 392 863 399 978 b 733 482 728 978 733 863 b 564 0 733 100 728 0 z m 564 990 b 57 482 258 990 57 757 b 564 -11 57 206 258 -11 b 1071 482 869 -11 1071 206 b 564 990 1071 757 869 990 z m 392 1021 l 564 1135 l 736 1021 l 793 1021 l 564 1289 l 335 1021 z "},"Õ":{"ha":1128,"x_min":0,"x_max":0,"o":"m 564 0 b 392 482 399 0 392 100 b 564 978 392 863 399 978 b 733 482 728 978 733 863 b 564 0 733 100 728 0 z m 564 990 b 57 482 258 990 57 757 b 564 -12 57 206 258 -12 b 1071 482 869 -12 1071 206 b 564 990 1071 757 869 990 z m 633 1074 b 935 1251 633 1074 817 996 l 929 1253 b 676 1229 890 1178 724 1208 l 511 1293 b 211 1117 511 1293 326 1385 l 217 1115 b 468 1139 254 1190 422 1157 z "},"Ö":{"ha":1128,"x_min":0,"x_max":0,"o":"m 564 0 b 392 482 399 0 392 100 b 564 978 392 863 399 978 b 733 482 728 978 733 863 b 564 0 733 100 728 0 z m 564 990 b 57 482 258 990 57 757 b 564 -11 57 206 258 -11 b 1071 482 869 -11 1071 206 b 564 990 1071 757 869 990 z m 531 1157 b 435 1253 531 1210 486 1253 b 336 1157 381 1253 336 1210 b 435 1058 336 1103 381 1058 b 531 1157 486 1058 531 1103 z m 792 1157 b 696 1253 792 1210 747 1253 b 597 1157 642 1253 597 1210 b 696 1058 597 1103 642 1058 b 792 1157 747 1058 792 1103 z "},"×":{"ha":933,"x_min":0,"x_max":0,"o":"m 854 600 l 717 740 l 468 493 l 221 740 l 82 600 l 329 353 l 82 106 l 221 -33 l 468 214 l 717 -33 l 854 107 l 607 353 z "},"Ø":{"ha":1129,"x_min":0,"x_max":0,"o":"m 817 929 l 875 1035 l 861 1035 l 806 935 b 565 990 736 971 654 990 b 58 482 260 990 58 757 b 313 46 58 292 154 128 l 260 -49 l 275 -49 l 324 40 b 565 -12 393 7 475 -12 b 1072 482 871 -12 1072 206 b 817 929 1072 671 975 842 z m 393 482 b 565 978 393 863 400 978 b 725 794 671 978 711 929 l 399 203 b 393 482 393 271 393 365 z m 565 0 b 401 179 457 0 417 43 l 728 769 b 735 482 733 697 735 600 b 565 0 735 100 729 0 z "},"Ù":{"ha":1022,"x_min":0,"x_max":0,"o":"m 736 93 b 811 304 806 167 811 261 l 811 665 b 996 965 811 779 840 965 l 996 965 l 994 978 l 631 978 l 631 965 b 799 665 763 965 799 779 l 799 304 b 725 121 799 304 792 169 b 575 71 683 90 632 71 b 357 304 443 71 357 140 l 357 843 b 414 965 357 943 354 965 l 414 978 l 17 978 l 17 965 b 72 843 78 965 72 928 l 72 314 b 444 -12 72 88 256 -12 b 736 93 551 -12 669 25 z m 461 1247 l 236 1178 l 658 1021 l 772 1021 z "},"Ú":{"ha":1022,"x_min":0,"x_max":0,"o":"m 736 93 b 811 304 806 167 811 261 l 811 665 b 996 965 811 779 840 965 l 996 965 l 994 978 l 631 978 l 631 965 b 799 665 763 965 799 779 l 799 304 b 725 121 799 304 792 169 b 575 71 683 90 632 71 b 357 304 443 71 357 140 l 357 843 b 414 965 357 943 354 965 l 414 978 l 17 978 l 17 965 b 72 843 78 965 72 928 l 72 314 b 444 -12 72 88 256 -12 b 736 93 551 -12 669 25 z m 297 1021 l 411 1021 l 833 1178 l 608 1247 z "},"Û":{"ha":1022,"x_min":0,"x_max":0,"o":"m 736 93 b 811 304 806 167 811 261 l 811 665 b 996 965 811 779 840 965 l 996 965 l 994 978 l 631 978 l 631 965 b 799 665 763 965 799 779 l 799 304 b 725 121 799 304 792 169 b 575 71 683 90 632 71 b 357 304 443 71 357 140 l 357 843 b 414 965 357 943 354 965 l 414 978 l 17 978 l 17 965 b 72 843 78 965 72 928 l 72 314 b 444 -12 72 88 256 -12 b 736 93 551 -12 669 25 z m 325 1021 l 497 1135 l 669 1021 l 726 1021 l 497 1289 l 268 1021 z "},"Ü":{"ha":1022,"x_min":0,"x_max":0,"o":"m 465 1157 b 369 1253 465 1210 421 1253 b 271 1157 315 1253 271 1210 b 369 1058 271 1103 315 1058 b 465 1157 421 1058 465 1103 z m 726 1157 b 631 1253 726 1210 682 1253 b 532 1157 576 1253 532 1210 b 631 1058 532 1103 576 1058 b 726 1157 682 1058 726 1103 z m 736 93 b 811 304 806 167 811 261 l 811 665 b 996 965 811 779 840 965 l 996 965 l 994 978 l 631 978 l 631 965 b 799 665 763 965 799 779 l 799 304 b 725 121 799 304 792 169 b 575 71 683 90 632 71 b 357 304 443 71 357 140 l 357 843 b 414 965 357 943 354 965 l 414 978 l 17 978 l 17 965 b 72 843 78 965 72 928 l 72 314 b 444 -12 72 88 256 -12 b 736 93 551 -12 669 25 z "},"Ý":{"ha":1079,"x_min":0,"x_max":0,"o":"m 657 465 l 454 810 b 431 968 360 969 375 968 l 431 978 l 13 978 l 13 968 b 119 858 49 964 58 964 b 390 383 119 858 186 744 l 390 157 b 339 13 390 63 397 13 l 339 0 l 713 0 l 713 13 b 664 157 654 13 664 63 l 664 454 l 776 682 b 1063 967 875 879 976 967 l 1063 978 l 660 978 l 660 967 b 765 688 831 967 797 754 b 657 465 726 603 657 465 z m 319 1021 l 433 1021 l 856 1178 l 631 1247 z "},"Þ":{"ha":1014,"x_min":0,"x_max":0,"o":"m 407 797 b 632 529 594 797 632 810 b 407 265 632 263 610 265 l 407 265 z m 407 253 b 954 529 683 253 954 271 b 407 810 954 792 683 810 l 407 810 l 407 843 b 497 965 407 967 438 965 l 497 978 l 38 978 l 38 965 b 128 843 99 965 128 967 l 128 157 b 38 13 128 26 97 13 l 38 0 l 497 0 l 497 13 b 407 157 439 13 407 26 z "},"ß":{"ha":1057,"x_min":0,"x_max":0,"o":"m 611 583 b 878 800 639 583 878 588 b 511 1038 878 1014 671 1038 b 118 678 308 1038 118 960 l 118 157 b 39 11 118 54 81 11 l 39 0 l 404 0 l 404 794 b 511 1025 404 794 399 1025 b 600 808 539 1025 600 1025 b 485 583 600 624 558 583 l 485 571 b 721 257 576 571 721 538 b 618 0 721 67 690 0 b 607 28 567 0 593 22 b 649 83 626 38 642 58 b 586 199 664 132 635 185 b 468 136 535 215 483 186 b 494 33 460 101 471 58 b 618 -12 514 7 553 -12 b 1021 275 871 -12 1021 38 b 611 583 1021 554 738 583 z "},"à":{"ha":788,"x_min":0,"x_max":0,"o":"m 417 125 b 358 72 401 92 382 72 b 304 164 303 72 304 164 b 417 339 304 229 303 314 z m 756 96 b 714 72 749 72 714 72 b 647 169 647 69 647 169 l 647 376 b 364 654 647 540 546 654 b 233 625 364 654 296 658 b 140 554 182 597 157 572 b 124 451 117 529 110 488 b 251 397 144 401 201 378 b 306 526 303 419 326 475 b 256 579 294 551 279 571 b 239 614 208 596 239 614 b 417 442 335 664 417 586 l 417 353 b 57 129 169 294 57 268 b 231 -12 57 11 178 -12 b 418 113 329 -12 400 40 b 585 -12 431 -12 585 -12 b 764 89 672 -12 744 28 z m 356 978 l 131 908 l 553 751 l 667 751 z "},"á":{"ha":788,"x_min":0,"x_max":0,"o":""},"â":{"ha":788,"x_min":0,"x_max":0,"o":"m 417 125 b 358 72 401 92 382 72 b 304 164 303 72 304 164 b 417 339 304 229 303 314 z m 756 96 b 714 72 749 72 714 72 b 647 169 647 69 647 169 l 647 376 b 364 654 647 540 546 654 b 233 625 364 654 296 658 b 140 554 182 597 157 572 b 124 451 117 529 110 488 b 251 397 144 401 201 378 b 306 526 303 419 326 475 b 256 579 294 551 279 571 b 239 614 208 596 239 614 b 417 442 335 664 417 586 l 417 353 b 57 129 169 294 57 268 b 231 -12 57 11 178 -12 b 418 113 329 -12 400 40 b 585 -12 431 -12 585 -12 b 764 89 672 -12 744 28 z m 243 711 l 415 825 l 588 711 l 644 711 l 415 979 l 186 711 z "},"ã":{"ha":788,"x_min":0,"x_max":0,"o":"m 469 725 b 771 903 469 725 653 647 l 765 904 b 513 881 726 829 560 860 l 347 944 b 47 768 347 944 163 1036 l 53 767 b 304 790 90 842 258 808 z m 417 125 b 358 72 401 92 382 72 b 304 164 303 72 304 164 b 417 339 304 229 303 314 z m 756 96 b 714 72 749 72 714 72 b 647 169 647 69 647 169 l 647 376 b 364 654 647 540 546 654 b 233 625 364 654 296 658 b 140 554 182 597 157 572 b 124 451 117 529 110 488 b 251 397 144 401 201 378 b 306 526 303 419 326 475 b 256 579 294 551 279 571 b 239 614 208 596 239 614 b 417 442 335 664 417 586 l 417 353 b 57 129 169 294 57 268 b 231 -12 57 11 178 -12 b 418 113 329 -12 400 40 b 585 -12 431 -12 585 -12 b 764 89 672 -12 744 28 z "},"ä":{"ha":788,"x_min":0,"x_max":0,"o":"m 371 846 b 275 942 371 899 326 942 b 176 846 221 942 176 899 b 275 747 176 792 221 747 b 371 846 326 747 371 792 z m 632 846 b 536 942 632 899 588 942 b 438 846 482 942 438 899 b 536 747 438 792 482 747 b 632 846 588 747 632 792 z m 417 125 b 358 72 401 92 382 72 b 304 164 303 72 304 164 b 417 339 304 229 303 314 z m 756 96 b 714 72 749 72 714 72 b 647 169 647 69 647 169 l 647 376 b 364 654 647 540 546 654 b 233 625 364 654 296 658 b 140 554 182 597 157 572 b 124 451 117 529 110 488 b 251 397 144 401 201 378 b 306 526 303 419 326 475 b 256 579 294 551 279 571 b 239 614 208 596 239 614 b 417 442 335 664 417 586 l 417 353 b 57 129 169 294 57 268 b 231 -12 57 11 178 -12 b 418 113 329 -12 400 40 b 585 -12 431 -12 585 -12 b 764 89 672 -12 744 28 z "},"å":{"ha":788,"x_min":0,"x_max":0,"o":"m 411 940 b 465 886 442 940 465 917 b 411 831 465 856 442 831 b 357 886 381 831 357 856 b 411 940 357 917 381 940 z m 411 1029 b 268 886 333 1029 268 965 b 411 744 268 808 333 744 b 554 886 490 744 554 808 b 411 1029 554 965 490 1029 z m 417 125 b 358 72 401 92 382 72 b 304 164 303 72 304 164 b 417 339 304 229 303 314 z m 756 96 b 714 72 749 72 714 72 b 647 169 647 69 647 169 l 647 376 b 364 654 647 540 546 654 b 233 625 364 654 296 658 b 140 554 182 597 157 572 b 124 451 117 529 110 488 b 251 397 144 401 201 378 b 306 526 303 419 326 475 b 256 579 294 551 279 571 b 239 614 208 596 239 614 b 417 442 335 664 417 586 l 417 353 b 57 129 169 294 57 268 b 231 -12 57 11 178 -12 b 418 113 329 -12 400 40 b 585 -12 431 -12 585 -12 b 764 89 672 -12 744 28 z "},"æ":{"ha":1011,"x_min":0,"x_max":0,"o":"m 618 347 b 699 642 618 481 617 642 b 751 347 761 642 751 522 z m 415 126 b 329 71 397 97 364 71 b 275 163 275 71 275 163 b 388 338 275 193 275 308 l 388 233 b 415 126 388 192 399 157 z m 926 196 b 763 49 917 96 840 38 b 618 335 661 64 618 124 l 953 335 b 693 654 953 596 840 654 b 517 594 619 654 575 633 b 331 654 469 628 407 654 b 213 624 331 654 275 657 b 119 553 163 597 136 571 b 103 450 96 528 89 486 b 231 396 124 400 181 376 b 285 525 282 418 306 474 b 235 578 274 550 258 568 b 221 614 190 596 221 614 b 388 440 317 664 388 585 l 388 351 b 50 129 144 299 50 268 b 201 -12 50 -12 201 -12 b 424 113 314 -12 394 47 b 685 -12 483 24 592 -12 b 939 196 860 -12 932 92 z "},"ç":{"ha":735,"x_min":0,"x_max":0,"o":"m 442 654 b 63 324 179 654 63 514 b 368 -11 63 138 199 1 l 314 -151 b 433 -235 418 -132 433 -212 b 379 -297 433 -264 417 -297 b 347 -282 349 -297 339 -286 b 372 -251 360 -278 367 -268 b 333 -193 378 -225 361 -199 b 272 -229 306 -186 279 -203 b 290 -279 269 -249 278 -269 b 386 -310 303 -290 326 -310 b 543 -201 449 -310 532 -294 b 356 -82 551 -122 486 -53 l 381 -12 l 396 -12 b 665 181 569 -12 665 94 l 656 185 b 515 111 636 138 585 111 b 335 342 399 111 335 192 b 449 642 335 528 369 642 b 535 589 532 642 550 594 b 482 533 511 579 493 561 b 543 403 461 481 489 421 b 675 464 596 382 657 410 b 654 569 686 501 678 544 b 442 654 621 607 550 654 z "},"è":{"ha":746,"x_min":0,"x_max":0,"o":"m 401 654 b 51 319 231 654 51 556 b 381 -12 51 132 199 -12 b 674 189 554 -12 656 86 l 661 192 b 471 47 633 74 540 32 b 311 335 378 68 311 124 l 689 335 b 401 654 689 596 549 654 z m 311 347 b 407 642 311 481 343 642 b 488 347 469 642 488 522 z m 329 978 l 104 908 l 526 751 l 640 751 z "},"é":{"ha":746,"x_min":0,"x_max":0,"o":"m 401 654 b 51 319 231 654 51 556 b 381 -12 51 132 199 -12 b 674 189 554 -12 656 86 l 661 192 b 471 47 633 74 540 32 b 311 335 378 68 311 124 l 689 335 b 401 654 689 596 549 654 z m 311 347 b 407 642 311 481 343 642 b 488 347 469 642 488 522 z m 154 751 l 268 751 l 690 908 l 465 978 z "},"ê":{"ha":746,"x_min":0,"x_max":0,"o":"m 401 654 b 51 319 231 654 51 556 b 381 -12 51 132 199 -12 b 674 189 554 -12 656 86 l 661 192 b 471 47 633 74 540 32 b 311 335 378 68 311 124 l 689 335 b 401 654 689 596 549 654 z m 311 347 b 407 642 311 481 343 642 b 488 347 469 642 488 522 z m 219 711 l 392 825 l 564 711 l 621 711 l 392 979 l 163 711 z "},"ë":{"ha":746,"x_min":0,"x_max":0,"o":"m 351 846 b 256 942 351 899 307 942 b 157 846 201 942 157 899 b 256 747 157 792 201 747 b 351 846 307 747 351 792 z m 613 846 b 517 942 613 899 568 942 b 418 846 463 942 418 899 b 517 747 418 792 463 747 b 613 846 568 747 613 792 z m 401 654 b 51 319 231 654 51 556 b 381 -12 51 132 199 -12 b 674 189 554 -12 656 86 l 661 192 b 471 47 633 74 540 32 b 311 335 378 68 311 124 l 689 335 b 401 654 689 596 549 654 z m 311 347 b 407 642 311 481 343 642 b 488 347 469 642 488 522 z "},"ì":{"ha":453,"x_min":0,"x_max":0,"o":"m 344 157 l 344 654 l 36 596 l 36 585 b 108 496 93 564 108 544 l 108 157 b 54 11 108 86 107 26 l 54 0 l 401 0 l 401 11 b 344 157 351 25 344 81 z m 138 978 l -87 908 l 335 751 l 449 751 z "},"í":{"ha":453,"x_min":0,"x_max":0,"o":"m 344 157 l 344 654 l 36 596 l 36 585 b 108 496 93 564 108 544 l 108 157 b 54 11 108 86 107 26 l 54 0 l 401 0 l 401 11 b 344 157 351 25 344 81 z m -15 751 l 99 751 l 521 908 l 296 978 z "},"î":{"ha":453,"x_min":0,"x_max":0,"o":"m 344 157 l 344 654 l 36 596 l 36 585 b 108 496 93 564 108 544 l 108 157 b 54 11 108 86 107 26 l 54 0 l 401 0 l 401 11 b 344 157 351 25 344 81 z m 44 711 l 217 825 l 389 711 l 446 711 l 217 979 l -12 711 z "},"ï":{"ha":453,"x_min":0,"x_max":0,"o":"m 344 157 l 344 654 l 36 596 l 36 585 b 108 496 93 564 108 544 l 108 157 b 54 11 108 86 107 26 l 54 0 l 401 0 l 401 11 b 344 157 351 25 344 81 z m 185 846 b 89 942 185 899 140 942 b -10 846 35 942 -10 899 b 89 747 -10 792 35 747 b 185 846 140 747 185 792 z m 446 846 b 350 942 446 899 401 942 b 251 846 296 942 251 899 b 350 747 251 792 296 747 b 446 846 401 747 446 792 z "},"ð":{"ha":851,"x_min":0,"x_max":0,"o":"m 518 463 b 404 0 514 161 508 0 b 306 275 300 0 306 60 b 419 550 306 457 357 550 b 518 463 483 550 518 511 z m 800 442 b 575 910 800 683 707 829 l 693 969 l 686 981 l 563 917 b 251 990 471 969 361 990 l 251 978 b 453 861 313 978 396 965 l 208 735 l 214 724 l 458 850 b 518 514 493 781 517 675 b 369 608 510 569 433 608 b 53 303 117 608 53 456 b 404 -12 53 88 193 -12 b 800 442 657 -12 800 165 z "},"ñ":{"ha":824,"x_min":0,"x_max":0,"o":"m 474 725 b 775 903 474 725 657 647 l 769 904 b 517 881 731 829 564 860 l 351 944 b 51 768 351 944 167 1036 l 57 767 b 308 790 94 842 263 808 z m 732 158 l 732 443 b 504 654 732 610 615 654 b 319 519 429 654 356 593 l 319 654 l 11 596 l 11 585 b 83 496 68 564 83 544 l 83 157 b 29 11 83 85 82 26 l 29 0 l 376 0 l 376 11 b 319 157 326 25 319 81 l 319 500 b 401 554 339 529 371 554 b 497 438 468 554 497 517 l 497 158 b 442 11 497 88 494 26 l 442 0 l 789 0 l 789 11 b 732 158 740 24 732 82 z "},"ò":{"ha":826,"x_min":0,"x_max":0,"o":"m 415 654 b 57 321 167 654 57 504 b 415 -12 57 139 167 -12 b 774 321 664 -12 774 139 b 415 654 774 504 664 654 z m 415 0 b 338 321 339 0 338 69 b 415 642 338 572 339 642 b 492 321 490 642 492 572 b 415 0 492 69 490 0 z m 354 978 l 129 908 l 551 751 l 665 751 z "},"ó":{"ha":826,"x_min":0,"x_max":0,"o":"m 415 654 b 57 321 167 654 57 504 b 415 -12 57 139 167 -12 b 774 321 664 -12 774 139 b 415 654 774 504 664 654 z m 415 0 b 338 321 339 0 338 69 b 415 642 338 572 339 642 b 492 321 490 642 492 572 b 415 0 492 69 490 0 z m 181 751 l 294 751 l 717 908 l 492 978 z "},"ô":{"ha":826,"x_min":0,"x_max":0,"o":"m 415 654 b 57 321 167 654 57 504 b 415 -12 57 139 167 -12 b 774 321 664 -12 774 139 b 415 654 774 504 664 654 z m 415 0 b 338 321 339 0 338 69 b 415 642 338 572 339 642 b 492 321 490 642 492 572 b 415 0 492 69 490 0 z m 243 711 l 415 825 l 588 711 l 644 711 l 415 979 l 186 711 z "},"õ":{"ha":826,"x_min":0,"x_max":0,"o":"m 415 654 b 57 321 167 654 57 504 b 415 -12 57 139 167 -12 b 774 321 664 -12 774 139 b 415 654 774 504 664 654 z m 415 0 b 338 321 339 0 338 69 b 415 642 338 572 339 642 b 492 321 490 642 492 572 b 415 0 492 69 490 0 z m 488 725 b 789 903 488 725 671 647 l 783 904 b 531 881 744 829 578 860 l 365 944 b 65 768 365 944 181 1036 l 71 767 b 322 790 108 842 276 808 z "},"ö":{"ha":826,"x_min":0,"x_max":0,"o":"m 415 654 b 57 321 167 654 57 504 b 415 -12 57 139 167 -12 b 774 321 664 -12 774 139 b 415 654 774 504 664 654 z m 415 0 b 338 321 339 0 338 69 b 415 642 338 572 339 642 b 492 321 490 642 492 572 b 415 0 492 69 490 0 z m 381 846 b 285 942 381 899 336 942 b 186 846 231 942 186 899 b 285 747 186 792 231 747 b 381 846 336 747 381 792 z m 642 846 b 546 942 642 899 597 942 b 447 846 492 942 447 899 b 546 747 447 792 492 747 b 642 846 597 747 642 792 z "},"÷":{"ha":868,"x_min":0,"x_max":0,"o":"m 807 299 l 807 469 l 63 469 l 63 299 z m 542 685 b 433 793 542 743 493 793 b 326 685 374 793 326 743 b 433 576 326 625 374 576 b 542 685 493 576 542 625 z m 542 83 b 433 190 542 142 493 190 b 326 83 374 190 326 142 b 433 -25 326 22 374 -25 b 542 83 493 -25 542 22 z "},"ø":{"ha":826,"x_min":0,"x_max":0,"o":"m 593 621 l 653 729 l 636 729 l 579 626 b 415 654 533 642 476 654 b 57 321 167 654 57 504 b 242 19 57 189 115 72 l 181 -93 l 196 -93 l 254 14 b 415 -12 300 -3 353 -12 b 774 321 664 -12 774 139 b 593 621 774 453 719 568 z m 338 321 b 415 642 338 572 339 642 b 490 468 472 642 486 596 l 338 194 b 338 321 338 229 338 274 z m 415 0 b 339 165 357 0 343 38 l 490 439 b 492 321 492 404 492 367 b 415 0 492 69 490 0 z "},"ù":{"ha":851,"x_min":0,"x_max":0,"o":"m 756 124 l 756 654 l 456 626 l 456 615 b 521 504 526 607 521 589 l 521 167 b 431 89 507 107 469 89 b 340 204 360 89 340 126 l 340 654 l 24 626 l 24 615 b 101 508 104 604 101 592 l 101 200 b 326 -12 101 33 217 -12 b 521 129 442 -12 510 57 l 521 15 b 560 -11 521 15 522 -17 l 826 25 l 826 36 b 756 124 768 43 756 57 z m 347 978 l 122 908 l 544 751 l 658 751 z "},"ú":{"ha":851,"x_min":0,"x_max":0,"o":""},"û":{"ha":851,"x_min":0,"x_max":0,"o":"m 756 124 l 756 654 l 456 626 l 456 615 b 521 504 526 607 521 589 l 521 167 b 431 89 507 107 469 89 b 340 204 360 89 340 126 l 340 654 l 24 626 l 24 615 b 101 508 104 604 101 592 l 101 200 b 326 -12 101 33 217 -12 b 521 129 442 -12 510 57 l 521 15 b 560 -11 521 15 522 -17 l 826 25 l 826 36 b 756 124 768 43 756 57 z m 263 711 l 435 825 l 607 711 l 664 711 l 435 979 l 206 711 z "},"ü":{"ha":851,"x_min":0,"x_max":0,"o":"m 390 846 b 294 942 390 899 346 942 b 196 846 240 942 196 899 b 294 747 196 792 240 747 b 390 846 346 747 390 792 z m 651 846 b 556 942 651 899 607 942 b 457 846 501 942 457 899 b 556 747 457 792 501 747 b 651 846 607 747 651 792 z m 756 124 l 756 654 l 456 626 l 456 615 b 521 504 526 607 521 589 l 521 167 b 431 89 507 107 469 89 b 340 204 360 89 340 126 l 340 654 l 24 626 l 24 615 b 101 508 104 604 101 592 l 101 200 b 326 -12 101 33 217 -12 b 521 129 442 -12 510 57 l 521 15 b 560 -11 521 15 522 -17 l 826 25 l 826 36 b 756 124 768 43 756 57 z "},"ý":{"ha":856,"x_min":0,"x_max":0,"o":"m 835 642 l 835 631 b 629 403 735 631 703 578 l 456 -96 b 340 -315 413 -235 372 -289 b 207 -329 310 -340 247 -347 b 147 -172 147 -301 122 -232 b 304 -112 175 -112 244 -86 b 365 -178 335 -126 356 -149 b 444 -86 371 -199 406 -225 l 444 -86 l 128 544 b 15 631 89 617 43 628 l 15 642 l 450 642 l 450 631 b 418 514 357 631 418 514 l 560 239 l 617 407 b 511 631 617 407 685 631 l 511 642 z m 154 751 l 268 751 l 690 908 l 465 978 z "},"þ":{"ha":921,"x_min":0,"x_max":0,"o":"m 440 0 b 326 193 367 0 333 68 l 326 433 b 440 607 332 526 358 607 b 579 313 540 607 579 475 b 440 0 579 90 518 0 z m 565 654 b 326 550 436 654 365 618 l 326 1018 l 18 960 l 18 949 b 90 860 75 928 90 908 l 90 -211 b 36 -356 90 -282 89 -340 l 36 -368 l 383 -368 l 383 -356 b 326 -211 333 -342 326 -287 l 326 19 b 497 -12 365 0 421 -12 b 858 332 675 -12 858 57 b 565 654 858 504 756 654 z "},"ÿ":{"ha":856,"x_min":0,"x_max":0,"o":"m 417 846 b 321 942 417 899 372 942 b 222 846 267 942 222 899 b 321 747 222 792 267 747 b 417 846 372 747 417 792 z m 678 846 b 582 942 678 899 633 942 b 483 846 528 942 483 899 b 582 747 483 792 528 747 b 678 846 633 747 678 792 z m 835 642 l 835 631 b 629 403 735 631 703 578 l 456 -96 b 340 -315 413 -235 372 -289 b 207 -329 310 -340 247 -347 b 147 -172 147 -301 122 -232 b 304 -112 175 -112 244 -86 b 365 -178 335 -126 356 -149 b 444 -86 371 -199 406 -225 l 444 -86 l 128 544 b 15 631 89 617 43 628 l 15 642 l 450 642 l 450 631 b 418 514 357 631 418 514 l 560 239 l 617 407 b 511 631 617 407 685 631 l 511 642 z "},"Ă":{"ha":1228,"x_min":0,"x_max":0,"o":""},"ă":{"ha":788,"x_min":0,"x_max":0,"o":"m 417 125 b 358 72 401 92 382 72 b 304 164 303 72 304 164 b 417 339 304 229 303 314 z m 756 96 b 714 72 749 72 714 72 b 647 169 647 69 647 169 l 647 376 b 364 654 647 540 546 654 b 233 625 364 654 296 658 b 140 554 182 597 157 572 b 124 451 117 529 110 488 b 251 397 144 401 201 378 b 306 526 303 419 326 475 b 256 579 294 551 279 571 b 239 614 208 596 239 614 b 417 442 335 664 417 586 l 417 353 b 57 129 169 294 57 268 b 231 -12 57 11 178 -12 b 418 113 329 -12 400 40 b 585 -12 431 -12 585 -12 b 764 89 672 -12 744 28 z m 418 897 b 233 978 274 897 233 926 l 229 978 b 418 765 229 854 283 765 b 603 978 550 765 603 854 l 600 978 b 418 897 600 926 558 897 z "},"Ą":{"ha":1058,"x_min":0,"x_max":0,"o":"m 251 269 b 28 11 144 25 69 14 l 28 0 l 428 0 l 428 11 b 264 269 261 11 236 206 l 536 269 l 581 174 b 553 11 581 174 664 11 l 553 0 l 804 0 b 696 -185 722 -37 672 -96 b 849 -261 696 -185 718 -281 b 933 -142 929 -246 933 -185 l 919 -142 b 875 -169 919 -168 875 -169 b 813 -122 875 -169 826 -175 b 890 0 803 -82 822 -37 l 1039 0 l 1039 11 b 914 126 1011 14 964 15 b 539 978 914 126 890 172 l 532 978 z m 531 282 l 268 282 l 392 594 z "},"ą":{"ha":788,"x_min":0,"x_max":0,"o":"m 756 96 b 714 72 749 72 714 72 b 647 169 647 69 647 169 l 647 376 b 364 654 647 540 546 654 b 233 625 364 654 296 658 b 140 554 182 597 157 572 b 124 451 117 529 110 488 b 251 397 144 401 201 378 b 306 526 303 419 326 475 b 256 579 294 551 279 571 b 239 614 208 596 239 614 b 417 442 335 664 417 586 l 417 353 b 57 129 169 294 57 268 b 231 -12 57 11 178 -12 b 418 113 329 -12 400 40 b 531 -4 425 35 485 6 b 432 -185 454 -43 410 -99 b 585 -261 432 -185 454 -281 b 669 -142 665 -246 669 -185 l 656 -142 b 611 -169 656 -168 611 -169 b 549 -122 611 -169 563 -175 b 607 -11 539 -86 554 -46 b 764 89 683 -6 746 33 z m 417 125 b 358 72 401 92 382 72 b 304 164 303 72 304 164 b 417 339 304 229 303 314 z "},"Ć":{"ha":1003,"x_min":0,"x_max":0,"o":"m 917 333 b 617 0 869 57 711 0 b 397 489 467 0 397 107 b 617 978 397 869 463 978 b 917 646 718 978 875 933 l 928 646 l 942 926 b 617 990 908 953 796 990 b 56 489 319 990 56 803 b 617 -11 56 175 319 -11 b 942 53 764 -11 904 28 l 928 333 z m 308 1021 l 422 1021 l 844 1178 l 619 1247 z "},"ć":{"ha":715,"x_min":0,"x_max":0,"o":"m 442 654 b 63 324 179 654 63 514 b 396 -12 63 128 214 -12 b 665 181 569 -12 665 94 l 656 185 b 515 111 636 138 585 111 b 335 342 399 111 335 192 b 449 642 335 528 369 642 b 532 592 532 642 547 597 b 482 533 508 582 490 561 b 543 403 461 481 489 421 b 675 464 596 382 657 410 b 654 569 689 500 678 544 b 442 654 621 607 550 654 z m 188 751 l 301 751 l 724 908 l 499 978 z "},"Č":{"ha":1003,"x_min":0,"x_max":0,"o":"m 917 333 b 617 0 869 57 711 0 b 397 489 467 0 397 107 b 617 978 397 869 463 978 b 917 646 718 978 875 933 l 928 646 l 942 926 b 617 990 908 953 796 990 b 56 489 319 990 56 803 b 617 -11 56 175 319 -11 b 942 53 764 -11 904 28 l 928 333 z m 351 1289 l 581 1021 l 810 1289 l 753 1289 l 581 1175 l 408 1289 z "},"č":{"ha":715,"x_min":0,"x_max":0,"o":"m 442 654 b 63 324 179 654 63 514 b 396 -12 63 128 214 -12 b 665 181 569 -12 665 94 l 656 185 b 515 111 636 138 585 111 b 335 342 399 111 335 192 b 449 642 335 528 369 642 b 532 592 532 642 547 597 b 482 533 508 582 490 561 b 543 403 461 481 489 421 b 675 464 596 382 657 410 b 654 569 689 500 678 544 b 442 654 621 607 550 654 z m 168 978 l 397 710 l 626 978 l 569 978 l 397 864 l 225 978 z "},"Ď":{"ha":1133,"x_min":0,"x_max":0,"o":""},"ď":{"ha":1144,"x_min":0,"x_max":0,"o":"m 932 978 b 867 692 932 749 867 692 l 878 674 b 1100 978 878 674 1100 776 z m 600 165 b 485 75 588 124 538 75 b 347 349 383 75 347 174 b 469 642 347 585 401 642 b 600 444 540 642 600 572 z m 835 125 l 835 1036 l 529 978 l 529 967 b 600 878 586 946 600 926 l 600 593 b 414 654 574 622 522 654 b 65 317 214 654 65 547 b 369 -12 65 99 176 -12 b 600 138 468 -12 578 39 l 600 14 b 639 -11 600 14 600 -18 l 906 24 l 906 35 b 835 125 849 42 835 57 z "},"Đ":{"ha":1143,"x_min":0,"x_max":0,"o":"m 472 978 l 61 978 l 61 965 b 143 786 122 965 143 872 l 143 497 l 29 497 l 29 485 l 143 485 l 143 190 b 61 13 143 96 121 13 l 61 0 l 472 0 b 1075 485 749 0 1075 79 b 472 978 1075 892 749 978 z m 472 13 l 411 13 l 411 485 l 593 485 l 593 497 l 411 497 l 411 965 l 472 965 b 726 485 643 965 726 929 b 472 13 726 32 636 13 z "},"đ":{"ha":940,"x_min":0,"x_max":0,"o":"m 835 125 l 835 794 l 942 794 l 942 807 l 835 807 l 835 1036 l 529 978 l 529 967 b 600 878 586 946 600 926 l 600 807 l 490 807 l 490 794 l 600 794 l 600 593 b 414 654 574 622 522 654 b 65 317 214 654 65 547 b 369 -12 65 99 176 -12 b 600 138 468 -12 578 39 l 600 14 b 639 -11 600 14 600 -18 l 906 24 l 906 35 b 835 125 849 42 835 57 z m 600 165 b 485 75 588 124 538 75 b 347 349 383 75 347 174 b 469 642 347 585 401 642 b 600 444 540 642 600 572 z "},"Ę":{"ha":949,"x_min":0,"x_max":0,"o":"m 836 272 b 439 13 836 -3 439 13 l 389 13 l 389 488 l 501 488 b 665 324 503 488 650 490 l 678 324 l 678 664 l 665 664 b 501 500 650 496 503 500 l 389 500 l 389 965 l 439 965 b 818 693 439 965 818 964 l 831 693 l 831 978 l 38 978 l 38 967 b 118 786 99 967 118 872 l 118 190 b 38 13 118 96 96 13 l 38 0 l 688 0 b 579 -185 606 -37 556 -96 b 732 -261 579 -185 601 -281 b 817 -142 813 -246 817 -185 l 803 -142 b 758 -169 803 -168 758 -169 b 696 -122 758 -169 710 -175 b 774 0 686 -82 706 -37 l 849 0 l 849 272 z "},"ę":{"ha":746,"x_min":0,"x_max":0,"o":"m 401 654 b 51 319 231 654 51 556 b 325 -8 51 151 169 17 b 233 -185 253 -46 211 -101 b 386 -261 233 -185 256 -281 b 471 -142 467 -246 471 -185 l 457 -142 b 413 -169 457 -168 413 -169 b 350 -122 413 -169 364 -175 b 408 -11 340 -86 356 -46 b 674 189 565 -1 656 92 l 661 192 b 471 47 633 74 540 32 b 311 335 378 68 311 124 l 689 335 b 401 654 689 596 549 654 z m 311 347 b 407 642 311 481 343 642 b 488 347 469 642 488 522 z "},"Ě":{"ha":949,"x_min":0,"x_max":0,"o":"m 240 1289 l 469 1021 l 699 1289 l 642 1289 l 469 1175 l 297 1289 z m 836 272 b 439 13 836 -3 439 13 l 389 13 l 389 488 l 501 488 b 665 324 503 488 650 490 l 678 324 l 678 664 l 665 664 b 501 500 650 496 503 500 l 389 500 l 389 965 l 439 965 b 818 693 439 965 818 964 l 831 693 l 831 978 l 38 978 l 38 967 b 118 786 99 967 118 872 l 118 190 b 38 13 118 96 96 13 l 38 0 l 849 0 l 849 272 z "},"ě":{"ha":746,"x_min":0,"x_max":0,"o":"m 401 654 b 51 319 231 654 51 556 b 381 -12 51 132 199 -12 b 674 189 554 -12 656 86 l 661 192 b 471 47 633 74 540 32 b 311 335 378 68 311 124 l 689 335 b 401 654 689 596 549 654 z m 311 347 b 407 642 311 481 343 642 b 488 347 469 642 488 522 z m 172 978 l 401 710 l 631 978 l 574 978 l 401 864 l 229 978 z "},"ı":{"ha":453,"x_min":0,"x_max":0,"o":"m 344 157 l 344 654 l 36 596 l 36 585 b 108 496 93 564 108 544 l 108 157 b 54 11 108 86 107 26 l 54 0 l 401 0 l 401 11 b 344 157 351 25 344 81 z "},"Ĺ":{"ha":926,"x_min":0,"x_max":0,"o":"m 794 301 l 794 0 l 58 0 l 58 13 b 115 131 118 13 115 36 l 115 886 b 47 965 115 971 107 965 l 47 978 l 463 978 l 463 965 b 392 868 403 965 392 968 l 392 13 l 392 13 b 782 301 511 13 782 43 z m 142 1021 l 256 1021 l 678 1178 l 453 1247 z "},"ĺ":{"ha":432,"x_min":0,"x_max":0,"o":"m 336 157 l 336 1036 l 26 978 l 26 967 b 100 878 83 946 100 926 l 100 157 b 46 11 100 85 99 26 l 46 0 l 393 0 l 393 11 b 336 157 343 25 336 81 z m -19 1060 l 94 1060 l 517 1217 l 292 1286 z "},"Ľ":{"ha":885,"x_min":0,"x_max":0,"o":"m 526 978 b 461 692 526 749 461 692 l 472 674 b 694 978 472 674 694 776 z m 782 301 b 392 13 782 43 511 13 l 392 13 l 392 868 b 463 965 392 968 403 965 l 463 978 l 47 978 l 47 965 b 115 886 107 965 115 971 l 115 131 b 58 13 115 36 118 13 l 58 0 l 794 0 l 794 301 z "},"ľ":{"ha":671,"x_min":0,"x_max":0,"o":"m 336 157 l 336 1036 l 26 978 l 26 967 b 100 878 83 946 100 926 l 100 157 b 46 11 100 85 99 26 l 46 0 l 393 0 l 393 11 b 336 157 343 25 336 81 z m 438 978 b 372 692 438 749 372 692 l 383 674 b 606 978 383 674 606 776 z "},"Ł":{"ha":885,"x_min":0,"x_max":0,"o":"m 782 301 b 392 13 782 43 511 13 l 392 13 l 392 535 l 597 644 l 597 661 l 392 551 l 392 868 b 463 965 392 968 403 965 l 463 978 l 47 978 l 47 965 b 115 886 107 965 115 971 l 115 404 l -76 301 l -76 285 l 115 388 l 115 131 b 58 13 115 36 118 13 l 58 0 l 794 0 l 794 301 z "},"ł":{"ha":529,"x_min":0,"x_max":0,"o":"m 507 646 l 507 663 l 389 599 l 389 1036 l 79 978 l 79 967 b 153 878 136 946 153 926 l 153 474 l 17 400 l 17 383 l 153 457 l 153 157 b 99 11 153 85 151 26 l 99 0 l 446 0 l 446 11 b 389 157 396 25 389 81 l 389 582 z "},"Ń":{"ha":1172,"x_min":0,"x_max":0,"o":""},"ń":{"ha":824,"x_min":0,"x_max":0,"o":"m 732 158 l 732 443 b 504 654 732 610 615 654 b 319 519 429 654 356 593 l 319 654 l 11 596 l 11 585 b 83 496 68 564 83 544 l 83 157 b 29 11 83 85 82 26 l 29 0 l 376 0 l 376 11 b 319 157 326 25 319 81 l 319 500 b 401 554 339 529 371 554 b 497 438 468 554 497 517 l 497 158 b 442 11 497 88 494 26 l 442 0 l 789 0 l 789 11 b 732 158 740 24 732 82 z m 181 751 l 294 751 l 717 908 l 492 978 z "},"Ň":{"ha":1172,"x_min":0,"x_max":0,"o":"m 357 1289 l 586 1021 l 815 1289 l 758 1289 l 586 1175 l 414 1289 z m 939 0 l 939 667 b 1149 967 939 796 976 967 l 1149 978 l 728 978 l 728 967 b 926 667 882 967 926 796 l 926 296 l 454 978 l 11 978 l 11 967 b 185 856 47 964 101 965 l 250 763 l 250 313 b 31 13 250 203 222 13 l 31 0 l 472 0 l 472 13 b 263 313 269 13 263 201 l 263 746 l 786 0 z "},"ň":{"ha":824,"x_min":0,"x_max":0,"o":"m 732 158 l 732 443 b 504 654 732 610 615 654 b 319 519 429 654 356 593 l 319 654 l 11 596 l 11 585 b 83 496 68 564 83 544 l 83 157 b 29 11 83 85 82 26 l 29 0 l 376 0 l 376 11 b 319 157 326 25 319 81 l 319 500 b 401 554 339 529 371 554 b 497 438 468 554 497 517 l 497 158 b 442 11 497 88 494 26 l 442 0 l 789 0 l 789 11 b 732 158 740 24 732 82 z m 172 978 l 401 710 l 631 978 l 574 978 l 401 864 l 229 978 z "},"Ő":{"ha":1135,"x_min":0,"x_max":0,"o":"m 564 0 b 392 482 399 0 392 100 b 564 978 392 863 399 978 b 733 482 728 978 733 863 b 564 0 733 100 728 0 z m 564 990 b 57 482 258 990 57 757 b 564 -11 57 206 258 -11 b 1071 482 869 -11 1071 206 b 564 990 1071 757 869 990 z m 251 1021 l 365 1021 l 788 1178 l 563 1247 z m 653 1021 l 767 1021 l 1189 1178 l 964 1247 z "},"ő":{"ha":831,"x_min":0,"x_max":0,"o":"m 415 654 b 57 321 167 654 57 504 b 415 -12 57 139 167 -12 b 774 321 664 -12 774 139 b 415 654 774 504 664 654 z m 415 0 b 338 321 339 0 338 69 b 415 642 338 572 339 642 b 492 321 490 642 492 572 b 415 0 492 69 490 0 z m 86 751 l 200 751 l 622 908 l 397 978 z m 488 751 l 601 751 l 1024 908 l 799 978 z "},"Œ":{"ha":1513,"x_min":0,"x_max":0,"o":"m 697 213 b 539 0 697 49 654 0 b 394 482 421 0 394 100 b 539 978 394 863 417 978 b 699 750 656 978 699 915 b 697 213 699 681 697 288 z m 1400 272 b 1031 13 1400 -1 1031 13 l 981 13 l 981 488 l 1065 488 b 1229 324 1068 488 1214 492 l 1242 324 l 1242 664 l 1229 664 b 1065 500 1214 497 1068 500 l 981 500 l 981 965 l 1031 965 b 1382 693 1031 965 1382 965 l 1394 693 l 1394 978 l 629 978 b 539 990 592 986 581 990 b 60 482 233 990 60 757 b 539 -12 60 206 233 -12 b 631 0 581 -12 593 -7 l 1413 0 l 1413 272 z "},"œ":{"ha":1136,"x_min":0,"x_max":0,"o":"m 750 346 b 817 642 750 479 753 642 b 878 346 879 642 878 521 z m 494 321 b 418 0 494 69 493 0 b 340 321 342 0 340 69 b 418 642 340 572 342 642 b 494 321 493 642 494 572 z m 1051 194 b 881 47 1024 76 950 32 b 750 333 788 68 750 122 l 1079 333 b 811 654 1079 594 958 654 b 629 600 743 654 688 633 b 418 654 575 631 504 654 b 60 321 169 654 60 504 b 418 -12 60 139 169 -12 b 629 39 506 -12 575 7 b 806 -12 681 7 740 -12 b 1064 194 979 -12 1046 92 z "},"Ŕ":{"ha":1074,"x_min":0,"x_max":0,"o":""},"ŕ":{"ha":710,"x_min":0,"x_max":0,"o":"m 642 622 b 508 644 606 654 547 663 b 326 460 467 625 425 608 l 326 654 l 17 596 l 17 585 b 90 496 74 564 90 544 l 90 157 b 36 11 90 86 89 26 l 36 0 l 383 0 l 383 11 b 326 157 333 25 326 81 l 326 433 b 428 511 383 519 428 529 b 472 425 428 479 446 450 b 656 439 528 379 608 385 b 642 622 703 492 696 575 z m 147 751 l 261 751 l 683 908 l 458 978 z "},"Ř":{"ha":1074,"x_min":0,"x_max":0,"o":""},"ř":{"ha":710,"x_min":0,"x_max":0,"o":"m 642 622 b 508 644 606 654 547 663 b 326 460 467 625 425 608 l 326 654 l 17 596 l 17 585 b 90 496 74 564 90 544 l 90 157 b 36 11 90 86 89 26 l 36 0 l 383 0 l 383 11 b 326 157 333 25 326 81 l 326 433 b 428 511 383 519 428 529 b 472 425 428 479 446 450 b 656 439 528 379 608 385 b 642 622 703 492 696 575 z m 97 978 l 326 710 l 556 978 l 499 978 l 326 864 l 154 978 z "},"Ś":{"ha":856,"x_min":0,"x_max":0,"o":"m 610 551 l 396 693 b 408 978 215 811 258 978 b 725 693 631 978 697 793 l 738 693 l 738 926 b 408 990 738 926 646 990 b 104 885 181 990 104 885 b 232 443 -14 736 35 567 l 446 308 b 422 0 613 185 571 0 b 61 325 204 0 83 231 l 49 325 l 49 58 b 422 -12 49 58 153 -12 b 738 101 663 -12 738 101 b 610 551 842 253 793 431 z m 185 1021 l 299 1021 l 721 1178 l 496 1247 z "},"ś":{"ha":617,"x_min":0,"x_max":0,"o":"m 435 388 l 294 475 b 307 642 174 551 217 642 b 521 474 388 642 496 599 l 533 474 l 533 615 b 307 654 533 615 467 654 b 97 588 149 654 97 588 b 178 269 13 493 47 356 l 318 185 b 303 0 424 115 401 0 b 68 217 211 0 96 88 l 56 217 l 56 35 b 303 -12 56 35 135 -12 b 517 63 464 -12 517 63 b 435 388 593 154 561 311 z m 79 751 l 193 751 l 615 908 l 390 978 z "},"Ş":{"ha":856,"x_min":0,"x_max":0,"o":"m 610 551 l 396 693 b 408 978 215 811 258 978 b 725 693 631 978 697 793 l 738 693 l 738 926 b 408 990 738 926 646 990 b 104 885 181 990 104 885 b 232 443 -14 736 35 567 l 446 308 b 422 0 613 185 571 0 b 61 325 204 0 83 231 l 49 325 l 49 58 b 403 -12 49 58 147 -8 l 349 -150 b 468 -233 453 -131 468 -211 b 414 -296 468 -262 451 -296 b 382 -281 383 -296 374 -285 b 407 -250 394 -276 401 -267 b 368 -192 413 -224 396 -197 b 307 -228 340 -185 314 -201 b 325 -278 304 -247 313 -268 b 421 -308 338 -289 361 -308 b 578 -200 483 -308 567 -293 b 390 -81 586 -121 521 -51 l 415 -12 l 422 -12 b 738 101 663 -12 738 101 b 610 551 842 253 793 431 z "},"ş":{"ha":617,"x_min":0,"x_max":0,"o":"m 435 388 l 294 475 b 307 642 174 551 217 642 b 521 474 388 642 496 599 l 533 474 l 533 615 b 307 654 533 615 467 654 b 97 588 149 654 97 588 b 178 269 13 493 47 356 l 318 185 b 303 0 424 115 401 0 b 68 217 211 0 96 88 l 56 217 l 56 35 b 265 -12 56 35 122 -7 l 211 -150 b 331 -233 315 -131 331 -211 b 276 -296 331 -262 314 -296 b 244 -281 246 -296 236 -285 b 269 -250 257 -276 264 -267 b 231 -192 275 -224 258 -197 b 169 -228 203 -185 176 -201 b 188 -278 167 -247 175 -268 b 283 -308 200 -289 224 -308 b 440 -200 346 -308 429 -293 b 253 -81 449 -121 383 -51 l 278 -12 l 303 -12 b 517 63 464 -12 517 63 b 435 388 593 154 561 311 z "},"Š":{"ha":857,"x_min":0,"x_max":0,"o":"m 610 551 l 396 693 b 408 978 215 811 258 978 b 725 693 631 978 697 793 l 738 693 l 738 926 b 408 990 738 926 646 990 b 104 885 181 990 104 885 b 232 443 -14 736 35 567 l 446 308 b 422 0 613 185 571 0 b 61 325 204 0 83 231 l 49 325 l 49 58 b 422 -12 49 58 153 -12 b 738 101 663 -12 738 101 b 610 551 842 253 793 431 z m 176 1289 l 406 1021 l 635 1289 l 578 1289 l 406 1175 l 233 1289 z "},"š":{"ha":618,"x_min":0,"x_max":0,"o":"m 435 388 l 294 475 b 307 642 174 551 217 642 b 521 474 388 642 496 599 l 533 474 l 533 615 b 307 654 533 615 467 654 b 97 588 149 654 97 588 b 178 269 13 493 47 356 l 318 185 b 303 0 424 115 401 0 b 68 217 211 0 96 88 l 56 217 l 56 35 b 303 -12 56 35 135 -12 b 517 63 464 -12 517 63 b 435 388 593 154 561 311 z m 74 950 l 303 682 l 532 950 l 475 950 l 303 836 l 131 950 z "},"Ţ":{"ha":1047,"x_min":0,"x_max":0,"o":"m 28 978 l 28 665 l 39 665 b 367 965 46 825 250 965 l 382 965 l 382 157 b 319 13 382 63 375 13 l 319 0 l 486 0 l 428 -150 b 547 -233 532 -131 547 -211 b 493 -296 547 -262 531 -296 b 461 -281 463 -296 453 -285 b 486 -250 474 -276 481 -267 b 447 -192 492 -224 475 -197 b 386 -228 419 -185 393 -201 b 404 -278 383 -247 392 -268 b 500 -308 417 -289 440 -308 b 657 -200 563 -308 646 -293 b 469 -81 665 -121 600 -51 l 499 0 l 729 0 l 729 13 b 667 157 674 13 667 63 l 667 965 l 682 965 b 1010 665 797 965 1003 825 l 1021 665 l 1021 978 z "},"ţ":{"ha":554,"x_min":0,"x_max":0,"o":"m 444 89 b 336 204 364 89 336 126 l 336 629 l 515 629 l 515 642 l 336 642 l 336 857 l 103 828 l 103 642 l 15 642 l 15 629 l 103 629 l 103 200 b 253 -3 103 75 172 17 l 194 -150 b 314 -233 299 -131 314 -211 b 260 -296 314 -262 297 -296 b 228 -281 229 -296 219 -285 b 253 -250 240 -276 247 -267 b 214 -192 258 -224 242 -197 b 153 -228 186 -185 160 -201 b 171 -278 150 -247 158 -268 b 267 -308 183 -289 207 -308 b 424 -200 329 -308 413 -293 b 236 -81 432 -121 367 -51 l 264 -6 b 338 -12 288 -10 313 -12 b 538 125 440 -12 521 51 l 529 131 b 444 89 513 111 485 89 z "},"Ť":{"ha":1047,"x_min":0,"x_max":0,"o":"m 28 978 l 28 665 l 39 665 b 367 965 46 825 250 965 l 382 965 l 382 157 b 319 13 382 63 375 13 l 319 0 l 729 0 l 729 13 b 667 157 674 13 667 63 l 667 965 l 682 965 b 1010 665 797 965 1003 825 l 1021 665 l 1021 978 z m 300 1289 l 529 1021 l 758 1289 l 701 1289 l 529 1175 l 357 1289 z "},"ť":{"ha":640,"x_min":0,"x_max":0,"o":"m 444 89 b 336 204 364 89 336 126 l 336 629 l 515 629 l 515 642 l 336 642 l 336 857 l 103 828 l 103 642 l 15 642 l 15 629 l 103 629 l 103 200 b 338 -12 103 32 228 -12 b 538 125 440 -12 521 51 l 529 131 b 444 89 513 111 485 89 z m 436 978 b 371 692 436 749 371 692 l 382 674 b 604 978 382 674 604 776 z "},"Ů":{"ha":1024,"x_min":0,"x_max":0,"o":"m 444 -12 b 72 314 256 -12 72 88 l 72 843 b 17 965 72 928 78 965 l 17 978 l 414 978 l 414 965 b 357 843 354 965 357 943 l 357 304 b 575 71 357 140 443 71 b 799 304 724 71 799 175 l 799 665 b 631 965 799 779 763 965 l 631 978 l 994 978 l 996 965 b 811 665 840 965 811 779 l 811 304 b 444 -12 811 122 689 -12 z m 525 1278 b 579 1224 556 1278 579 1254 b 525 1168 579 1193 556 1168 b 471 1224 494 1168 471 1193 b 525 1278 471 1254 494 1278 z m 525 1363 b 382 1224 447 1363 382 1303 b 525 1082 382 1146 447 1082 b 668 1224 604 1082 668 1146 b 525 1363 668 1303 604 1363 z "},"ů":{"ha":851,"x_min":0,"x_max":0,"o":""},"Ű":{"ha":1024,"x_min":0,"x_max":0,"o":"m 915 1247 l 604 1021 l 718 1021 l 1140 1178 z m 514 1247 l 203 1021 l 317 1021 l 739 1178 z m 444 -12 b 72 314 256 -12 72 88 l 72 843 b 17 965 72 928 78 965 l 17 978 l 414 978 l 414 965 b 357 843 354 965 357 943 l 357 304 b 575 71 357 140 443 71 b 799 304 725 71 799 175 l 799 665 b 631 965 799 779 763 965 l 631 978 l 994 978 l 996 965 b 811 665 840 965 811 779 l 811 304 b 444 -12 811 122 689 -12 z "},"ű":{"ha":851,"x_min":0,"x_max":0,"o":"m 71 751 l 185 751 l 607 908 l 382 978 z m 472 751 l 586 751 l 1008 908 l 783 978 z m 756 124 l 756 654 l 456 626 l 456 615 b 521 504 526 607 521 589 l 521 167 b 431 89 507 107 469 89 b 340 204 360 89 340 126 l 340 654 l 24 626 l 24 615 b 101 508 104 604 101 592 l 101 200 b 326 -12 101 33 217 -12 b 521 129 442 -12 510 57 l 521 15 b 560 -11 521 15 522 -17 l 826 25 l 826 36 b 756 124 768 43 756 57 z "},"Ÿ":{"ha":1079,"x_min":0,"x_max":0,"o":"m 657 465 l 454 810 b 431 968 360 969 375 968 l 431 978 l 13 978 l 13 968 b 119 858 49 964 58 964 b 390 383 119 858 186 744 l 390 157 b 339 13 390 63 397 13 l 339 0 l 713 0 l 713 13 b 664 157 654 13 664 63 l 664 454 l 776 682 b 1063 967 875 879 976 967 l 1063 978 l 660 978 l 660 967 b 765 688 831 967 797 754 b 657 465 726 603 657 465 z m 500 1157 b 404 1253 500 1210 456 1253 b 306 1157 350 1253 306 1210 b 404 1058 306 1103 350 1058 b 500 1157 456 1058 500 1103 z m 761 1157 b 665 1253 761 1210 717 1253 b 567 1157 611 1253 567 1210 b 665 1058 567 1103 611 1058 b 761 1157 717 1058 761 1103 z "},"Ź":{"ha":954,"x_min":0,"x_max":0,"o":"m 883 978 l 85 978 l 67 697 l 78 697 b 500 965 100 864 260 965 l 565 965 l 35 0 l 853 0 l 874 324 l 863 324 b 404 13 835 78 672 13 l 390 13 z m 275 1021 l 389 1021 l 811 1178 l 586 1247 z "},"ź":{"ha":735,"x_min":0,"x_max":0,"o":"m 140 751 l 254 751 l 676 908 l 451 978 z m 685 642 l 88 642 l 81 458 l 92 458 b 399 629 124 550 213 629 l 40 0 l 644 0 l 657 211 l 646 211 b 349 13 626 156 557 13 z "},"Ż":{"ha":954,"x_min":0,"x_max":0,"o":"m 617 1176 b 521 1272 617 1229 572 1272 b 422 1176 467 1272 422 1229 b 521 1078 422 1122 467 1078 b 617 1176 572 1078 617 1122 z m 883 978 l 85 978 l 67 697 l 78 697 b 500 965 100 864 260 965 l 565 965 l 35 0 l 853 0 l 874 324 l 863 324 b 404 13 835 78 672 13 l 390 13 z "},"ż":{"ha":735,"x_min":0,"x_max":0,"o":""},"Ž":{"ha":954,"x_min":0,"x_max":0,"o":"m 883 978 l 85 978 l 67 697 l 78 697 b 500 965 100 864 260 965 l 565 965 l 35 0 l 853 0 l 874 324 l 863 324 b 404 13 835 78 672 13 l 390 13 z m 249 1289 l 478 1021 l 707 1289 l 650 1289 l 478 1175 l 306 1289 z "},"ž":{"ha":735,"x_min":0,"x_max":0,"o":"m 161 950 l 390 682 l 619 950 l 563 950 l 390 836 l 218 950 z m 685 642 l 88 642 l 81 458 l 92 458 b 399 629 124 550 213 629 l 40 0 l 644 0 l 657 211 l 646 211 b 349 13 626 156 557 13 z "},"ƒ":{"ha":1043,"x_min":0,"x_max":0,"o":"m 974 950 b 821 1021 957 979 889 1021 b 419 521 624 1021 488 911 l 261 521 l 258 508 l 418 508 l 351 -4 b 213 -321 351 -4 311 -321 b 164 -282 146 -321 150 -285 b 215 -235 186 -276 204 -258 b 172 -104 240 -186 219 -129 b 43 -150 125 -82 68 -101 b 50 -258 28 -183 32 -229 b 210 -332 68 -287 125 -332 b 601 136 421 -332 557 -200 l 653 508 l 829 508 l 832 521 l 654 521 l 676 692 b 819 1010 676 692 717 1010 b 863 975 879 1010 874 978 b 808 926 839 968 819 950 b 853 797 783 879 804 821 b 981 842 899 775 957 794 b 974 950 996 875 992 922 z "},"ˆ":{"ha":458,"x_min":0,"x_max":0,"o":"m 458 738 l 229 1006 l 0 738 l 57 738 l 229 851 l 401 738 z "},"ˇ":{"ha":458,"x_min":0,"x_max":0,"o":"m 0 1000 l 229 732 l 458 1000 l 401 1000 l 229 886 l 57 1000 z "},"ˉ":{"ha":458,"x_min":0,"x_max":0,"o":"m -35 932 l -35 793 l 458 793 l 458 932 z "},"˘":{"ha":371,"x_min":0,"x_max":0,"o":"m 188 897 b 3 978 43 897 3 926 l -1 978 b 188 765 -1 854 53 765 b 372 978 319 765 372 854 l 369 978 b 188 897 369 926 328 897 z "},"˙":{"ha":390,"x_min":0,"x_max":0,"o":"m 300 897 b 204 993 300 950 256 993 b 106 897 150 993 106 950 b 204 799 106 843 150 799 b 300 897 256 799 300 843 z "},"˚":{"ha":386,"x_min":0,"x_max":0,"o":"m 196 939 b 250 885 226 939 250 915 b 196 829 250 854 226 829 b 142 885 165 829 142 854 b 196 939 142 915 165 939 z m 196 1024 b 53 885 118 1024 53 964 b 196 743 53 807 118 743 b 339 885 275 743 339 807 b 196 1024 339 964 275 1024 z "},"˛":{"ha":386,"x_min":0,"x_max":0,"o":"m 343 -31 l 343 0 b 149 -215 214 -36 118 -99 b 301 -292 149 -215 171 -311 b 386 -172 382 -276 386 -215 l 372 -172 b 328 -200 372 -199 328 -200 b 265 -153 328 -200 279 -206 b 343 -31 256 -112 275 -68 z "},"˜":{"ha":664,"x_min":0,"x_max":0,"o":"m 393 735 b 694 926 393 735 576 671 l 689 928 b 436 918 650 853 483 897 l 271 982 b -29 792 271 982 86 1060 l -24 790 b 228 800 14 865 182 818 z "},"˝":{"ha":1099,"x_min":0,"x_max":0,"o":"m 121 775 l 235 775 l 657 932 l 432 1001 z m 522 775 l 636 775 l 1058 932 l 833 1001 z "},"Ω":{"ha":1067,"x_min":0,"x_max":0,"o":"m 1013 271 b 876 193 983 215 921 193 l 658 193 b 713 239 658 193 661 217 b 974 625 822 282 974 418 b 531 1022 974 893 785 1022 b 89 625 276 1022 89 893 b 351 239 89 418 240 282 b 406 193 403 217 406 193 l 186 193 b 50 271 142 193 79 215 l 39 271 l 96 0 l 469 0 b 389 618 469 0 389 347 b 531 1010 389 944 428 1010 b 674 618 633 1010 674 944 b 593 0 674 347 593 0 l 967 0 l 1024 271 z "},"μ":{"ha":858,"x_min":0,"x_max":0,"o":"m 758 124 l 758 654 l 458 626 l 458 615 b 524 504 529 607 524 589 l 524 181 b 444 90 514 126 483 90 b 342 206 363 90 342 126 l 342 654 l 28 626 l 28 615 b 93 504 99 607 93 589 l 93 -340 b 133 -367 93 -340 93 -374 l 414 -331 l 414 -319 b 342 -231 356 -314 342 -299 l 342 -12 b 524 139 385 -12 501 21 l 524 15 b 563 -11 524 15 525 -18 l 831 24 l 831 36 b 758 124 772 42 758 56 z "},"π":{"ha":847,"x_min":0,"x_max":0,"o":"m 764 90 b 728 68 764 90 754 68 b 676 160 728 68 676 65 l 676 486 l 676 486 b 819 733 817 486 819 615 l 807 733 b 635 667 799 672 733 667 l 243 667 b 11 417 32 667 11 417 l 24 411 b 224 485 85 489 144 483 l 224 485 l 208 251 b 86 -47 203 146 176 22 l 93 -57 b 347 243 96 -56 339 19 l 363 486 l 483 486 l 483 125 b 631 -12 483 125 476 -12 b 772 83 713 -12 760 47 z "},"‐":{"ha":621,"x_min":0,"x_max":0,"o":"m 526 261 l 526 446 l 89 446 l 89 261 z "},"–":{"ha":779,"x_min":0,"x_max":0,"o":"m 0 425 l 0 275 l 779 275 l 779 425 z "},"—":{"ha":1465,"x_min":0,"x_max":0,"o":"m 0 425 l 0 275 l 1465 275 l 1465 425 z "},"‘":{"ha":408,"x_min":0,"x_max":0,"o":"m 113 603 b 315 603 168 547 258 547 b 314 808 371 661 371 751 b 217 849 286 835 251 846 b 292 1008 192 853 217 949 l 282 1022 b 151 911 217 985 171 942 b 113 603 103 843 25 690 z "},"’":{"ha":428,"x_min":0,"x_max":0,"o":"m 324 979 b 121 979 268 1035 178 1035 b 122 774 65 921 65 831 b 219 733 150 747 185 736 b 144 574 244 729 219 633 l 154 560 b 285 671 219 597 265 640 b 324 979 333 739 411 892 z "},"‚":{"ha":439,"x_min":0,"x_max":0,"o":"m 321 236 b 118 236 265 292 175 292 b 119 31 63 178 63 88 b 217 -10 147 4 182 -7 b 142 -169 242 -14 217 -110 l 151 -183 b 282 -72 217 -146 263 -103 b 321 236 331 -4 408 149 z "},"“":{"ha":826,"x_min":0,"x_max":0,"o":"m 113 603 b 315 603 168 547 258 547 b 314 808 371 661 371 751 b 217 849 286 835 251 846 b 292 1008 192 853 217 949 l 282 1022 b 151 911 217 985 171 942 b 113 603 103 843 25 690 z m 497 603 b 700 603 553 547 643 547 b 699 808 756 661 756 751 b 601 849 671 835 636 846 b 676 1008 576 853 601 949 l 667 1022 b 536 911 601 985 556 942 b 497 603 488 843 410 690 z "},"”":{"ha":825,"x_min":0,"x_max":0,"o":"m 707 979 b 504 979 651 1035 561 1035 b 506 774 449 921 449 831 b 603 733 533 747 568 736 b 528 574 628 729 603 633 l 538 560 b 668 671 603 597 649 640 b 707 979 717 739 794 892 z m 322 979 b 119 979 267 1035 176 1035 b 121 774 64 921 64 831 b 218 733 149 747 183 736 b 143 574 243 729 218 633 l 153 560 b 283 671 218 597 264 640 b 322 979 332 739 410 892 z "},"„":{"ha":811,"x_min":0,"x_max":0,"o":"m 703 235 b 500 235 647 290 557 290 b 501 29 444 176 444 86 b 599 -11 529 3 564 -8 b 524 -171 624 -15 599 -111 l 533 -185 b 664 -74 599 -147 644 -104 b 703 235 713 -6 790 147 z m 318 235 b 115 235 263 290 172 290 b 117 29 60 176 60 86 b 214 -11 144 3 179 -8 b 139 -171 239 -15 214 -111 l 149 -185 b 279 -74 214 -147 260 -104 b 318 235 328 -6 406 147 z "},"†":{"ha":649,"x_min":0,"x_max":0,"o":"m 42 654 b 42 561 15 629 17 588 b 136 563 69 535 111 535 b 156 607 149 575 154 590 b 246 564 157 618 213 607 l 254 569 b 192 640 232 607 208 629 b 42 654 153 668 82 696 z m 606 654 b 457 640 565 696 496 668 b 390 569 439 629 413 607 l 400 564 b 492 607 435 607 490 618 b 511 563 493 590 499 575 b 606 561 538 535 579 535 b 606 654 632 588 632 629 z m 401 974 b 324 1050 401 1015 365 1050 b 246 974 281 1050 246 1015 b 324 896 246 931 281 896 b 401 974 365 896 401 931 z m 332 560 b 382 750 332 638 382 676 b 324 842 382 750 388 842 b 265 750 261 842 265 750 b 315 560 265 676 315 633 b 229 399 315 501 308 493 b 317 -368 299 43 317 -368 l 329 -368 b 418 399 329 -368 349 43 b 332 560 340 492 332 503 z "},"‡":{"ha":821,"x_min":0,"x_max":0,"o":"m 179 538 b 203 593 194 553 201 574 b 313 542 204 607 271 593 l 322 549 b 246 635 296 593 267 621 b 63 653 197 668 111 703 b 63 538 31 621 31 569 b 179 538 96 506 147 506 z m 615 593 b 638 538 615 574 622 553 b 754 538 669 506 721 506 b 754 653 786 569 786 621 b 571 635 704 703 618 668 b 494 549 550 621 519 593 l 501 542 b 615 593 544 593 614 607 z m 408 856 b 503 950 460 856 503 897 b 408 1046 503 1003 460 1046 b 313 950 356 1046 313 1003 b 408 856 313 897 356 856 z m 511 342 b 418 486 418 399 418 486 b 476 682 418 581 476 590 b 408 786 476 682 482 786 b 339 682 335 786 339 682 b 397 486 339 590 397 575 b 303 342 397 486 397 399 b 397 199 397 276 397 199 b 339 3 397 103 339 93 b 408 -101 339 3 335 -101 b 476 3 482 -101 476 3 b 418 199 476 93 418 108 b 511 342 418 199 418 276 z m 754 154 b 638 154 721 188 669 188 b 615 97 622 138 615 118 b 501 150 614 85 544 97 l 494 144 b 571 56 519 97 550 72 b 754 39 618 24 704 -11 b 754 154 786 71 786 122 z m 203 97 b 179 154 201 118 194 138 b 63 154 147 188 94 188 b 63 39 31 122 31 71 b 246 56 111 -11 197 24 b 322 144 267 72 296 97 l 313 150 b 203 97 271 97 203 85 z m 408 -168 b 313 -262 356 -168 313 -211 b 408 -358 313 -317 356 -358 b 503 -262 460 -358 503 -317 b 408 -168 503 -211 460 -168 z "},"•":{"ha":726,"x_min":0,"x_max":0,"o":"m 372 272 b 575 472 485 272 575 361 b 372 674 575 585 485 674 b 172 472 263 674 172 585 b 372 272 172 361 263 272 z "},"…":{"ha":1367,"x_min":0,"x_max":0,"o":"m 406 131 b 264 275 406 210 342 275 b 119 131 183 275 119 210 b 264 -12 119 50 183 -12 b 406 131 342 -12 406 50 z m 806 131 b 664 275 806 210 742 275 b 519 131 583 275 519 210 b 664 -12 519 50 583 -12 b 806 131 742 -12 806 50 z m 1235 131 b 1093 275 1235 210 1171 275 b 949 131 1013 275 949 210 b 1093 -12 949 50 1013 -12 b 1235 131 1171 -12 1235 50 z "},"‰":{"ha":1797,"x_min":0,"x_max":0,"o":"m 260 943 b 24 689 99 943 24 826 b 260 444 24 553 99 444 b 494 689 419 444 494 553 b 260 943 494 826 419 943 z m 260 457 b 189 689 196 457 189 500 b 260 931 189 879 194 931 b 329 689 322 931 329 879 b 260 457 329 500 325 457 z m 953 533 b 717 281 792 533 717 418 b 953 36 717 143 792 36 b 1189 281 1113 36 1189 143 b 953 533 1189 418 1113 533 z m 953 49 b 882 281 889 49 882 90 b 953 521 882 469 888 521 b 1022 281 1015 521 1022 469 b 953 49 1022 90 1019 49 z m 926 978 l 163 0 l 300 0 l 1065 978 z m 1492 533 b 1256 281 1331 533 1256 418 b 1492 36 1256 143 1331 36 b 1728 281 1651 36 1728 143 b 1492 533 1728 418 1651 533 z m 1492 49 b 1421 281 1428 49 1421 90 b 1492 521 1421 469 1426 521 b 1561 281 1554 521 1561 469 b 1492 49 1561 90 1558 49 z "},"‹":{"ha":535,"x_min":0,"x_max":0,"o":"m 465 701 l 68 369 l 465 46 l 465 114 l 301 369 l 465 633 z "},"›":{"ha":535,"x_min":0,"x_max":0,"o":"m 68 633 l 232 369 l 68 114 l 68 46 l 465 369 l 68 701 z "},"⁄":{"ha":549,"x_min":0,"x_max":0,"o":"m 636 1019 l -203 0 l -72 0 l 768 1019 z "},"€":{"ha":924,"x_min":0,"x_max":0,"o":"m 846 264 b 629 0 804 25 717 0 b 472 414 489 0 474 93 l 703 414 l 710 426 l 472 426 b 472 489 472 447 472 467 b 472 553 472 511 472 532 l 725 553 l 732 565 l 472 565 b 629 978 474 885 486 978 b 846 715 725 978 810 965 l 857 715 l 871 926 b 629 990 838 953 808 990 b 168 565 357 990 194 833 l 25 565 l 19 553 l 168 553 b 165 489 165 532 165 511 b 168 426 165 467 165 447 l 25 426 l 19 414 l 168 414 b 629 -12 193 146 356 -12 b 871 53 776 -12 833 28 l 857 264 z "},"ℓ":{"ha":536,"x_min":0,"x_max":0,"o":"m 493 139 b 425 67 493 82 451 67 b 328 254 351 67 328 111 l 331 425 l 386 490 b 440 982 538 665 519 889 b 118 696 346 1082 118 1026 l 118 411 l 31 346 l 31 246 l 118 313 l 118 263 b 339 -12 118 29 213 -12 b 506 131 421 -12 510 39 z m 332 699 b 433 971 332 1089 428 981 b 368 578 453 939 563 765 l 332 543 z "},"™":{"ha":1049,"x_min":0,"x_max":0,"o":"m 17 978 l 17 858 l 29 858 b 147 965 33 944 119 965 l 161 965 l 161 650 b 136 592 161 611 160 592 l 136 579 l 303 579 l 303 592 b 278 650 279 592 278 611 l 278 965 l 292 965 b 411 858 318 965 407 944 l 424 858 l 424 978 z m 776 718 l 640 978 l 479 978 l 479 965 b 531 929 494 965 511 965 l 531 729 b 450 592 531 654 510 592 l 450 579 l 626 579 l 626 592 b 543 729 561 592 543 656 l 543 913 l 724 575 l 740 575 l 875 939 l 875 632 b 846 592 875 593 874 592 l 846 579 l 1019 579 l 1019 592 b 988 632 992 592 988 593 l 988 921 b 1014 965 988 956 986 965 l 1014 978 l 875 978 z "},"Ω":{"ha":1067,"x_min":0,"x_max":0,"o":"m 1013 271 b 876 193 983 215 921 193 l 658 193 b 713 239 658 193 661 217 b 974 625 822 282 974 418 b 531 1022 974 893 785 1022 b 89 625 276 1022 89 893 b 351 239 89 418 240 282 b 406 193 403 217 406 193 l 186 193 b 50 271 142 193 79 215 l 39 271 l 96 0 l 469 0 b 389 618 469 0 389 347 b 531 1010 389 944 428 1010 b 674 618 633 1010 674 944 b 593 0 674 347 593 0 l 967 0 l 1024 271 z "},"℮":{"ha":1239,"x_min":0,"x_max":0,"o":"m 921 910 l 921 533 l 318 533 l 318 913 b 617 992 404 963 507 992 b 921 910 729 992 833 961 z m 1190 510 b 617 1019 1190 790 933 1019 b 43 510 300 1019 43 790 b 617 -1 43 228 300 -1 b 1067 193 799 -1 961 75 l 1028 193 b 617 26 928 92 781 26 b 318 106 507 26 404 56 l 318 510 z "},"∂":{"ha":863,"x_min":0,"x_max":0,"o":"m 393 1033 b 94 926 249 1033 150 992 l 179 788 l 186 789 b 393 1021 185 889 304 1021 b 551 506 517 1021 583 904 b 363 635 525 604 426 635 b 57 322 150 635 71 482 b 393 -12 39 99 181 -12 b 804 454 647 -12 781 165 b 393 1033 833 810 653 1033 z m 393 0 b 307 286 297 0 289 63 b 446 574 324 476 369 574 b 549 478 488 574 517 551 b 393 0 519 151 488 0 z "},"∆":{"ha":1000,"x_min":0,"x_max":0,"o":"m 546 1025 l 432 1000 l 46 39 l 44 36 l 53 0 l 921 0 l 942 44 z m 118 61 l 401 732 l 686 61 z "},"∏":{"ha":1194,"x_min":0,"x_max":0,"o":"m 1151 965 l 1151 978 l 36 978 l 36 965 b 140 828 106 965 140 924 l 140 57 b 36 -106 140 -50 103 -106 l 36 -118 l 528 -118 l 528 -106 b 424 57 463 -106 424 -50 l 424 782 b 528 965 424 935 461 965 l 658 965 b 764 782 726 965 764 935 l 764 57 b 658 -106 764 -50 725 -106 l 658 -118 l 1151 -118 l 1151 -106 b 1046 57 1085 -106 1046 -50 l 1046 828 b 1151 965 1046 924 1083 965 z "},"∑":{"ha":1004,"x_min":0,"x_max":0,"o":"m 364 965 l 364 965 b 924 657 606 965 868 817 l 942 657 l 911 978 l 29 978 l 381 333 l 113 -136 l 928 -136 l 965 233 l 950 233 b 297 -122 914 136 736 -122 l 297 -122 l 647 472 z "},"−":{"ha":869,"x_min":0,"x_max":0,"o":"m 807 261 l 807 446 l 67 446 l 67 261 z "},"∕":{"ha":563,"x_min":0,"x_max":0,"o":"m 636 1019 l -203 0 l -72 0 l 768 1019 z "},"∙":{"ha":410,"x_min":0,"x_max":0,"o":"m 310 414 b 208 515 310 469 265 515 b 108 414 153 515 108 469 b 208 314 108 358 153 314 b 310 414 265 314 310 358 z "},"√":{"ha":901,"x_min":0,"x_max":0,"o":"m 607 108 l 403 582 l 64 454 l 68 444 b 213 335 122 464 182 407 l 474 -258 l 629 -208 l 872 1183 l 797 1204 z "},"∞":{"ha":1192,"x_min":0,"x_max":0,"o":"m 1036 582 b 844 661 985 632 917 661 b 654 582 772 661 704 632 l 593 521 l 532 582 b 340 661 481 632 413 661 b 150 582 268 661 200 632 l 149 581 b 150 199 44 475 44 304 b 340 119 200 147 268 119 b 532 199 413 119 481 147 l 593 260 l 654 199 b 844 119 704 147 772 119 b 1036 199 917 119 985 147 l 1036 200 b 1036 582 1142 304 1142 476 z m 281 451 b 340 476 296 467 318 476 b 401 451 364 476 385 467 l 463 390 l 401 329 b 340 304 385 313 364 304 b 281 329 318 304 296 313 b 281 451 246 363 246 418 z m 783 451 b 844 476 800 467 822 476 b 906 451 868 476 889 467 b 906 329 939 418 939 363 b 844 304 889 313 868 304 b 785 329 822 304 800 313 l 724 390 z "},"∫":{"ha":600,"x_min":0,"x_max":0,"o":"m 547 1101 b 408 1146 518 1138 471 1146 b 163 618 254 1146 106 1025 l 246 7 b 182 -283 275 -287 182 -283 b 150 -256 143 -283 139 -260 b 194 -208 172 -249 186 -232 b 144 -99 213 -165 190 -115 b 35 -147 101 -79 51 -101 b 49 -243 24 -176 31 -218 b 181 -292 75 -278 118 -292 b 426 235 338 -292 475 -197 l 343 847 b 408 1136 317 1138 408 1136 b 446 1114 450 1136 457 1119 b 401 1068 425 1108 411 1090 b 450 958 385 1024 406 974 b 561 1006 493 939 544 961 b 547 1101 574 1035 568 1078 z "},"≈":{"ha":807,"x_min":0,"x_max":0,"o":"m 464 394 b 765 586 464 394 647 331 l 760 588 b 507 578 721 513 554 557 l 342 642 b 42 451 342 642 157 719 l 47 450 b 299 460 85 525 253 478 z m 464 133 b 765 325 464 133 647 69 l 760 326 b 507 317 721 251 554 296 l 342 381 b 42 190 342 381 157 458 l 47 189 b 299 199 85 264 253 217 z "},"≠":{"ha":753,"x_min":0,"x_max":0,"o":"m 694 464 l 694 586 l 542 586 l 600 713 l 486 765 l 404 586 l 64 586 l 64 464 l 347 464 l 283 322 l 64 322 l 64 200 l 226 200 l 174 83 l 288 31 l 365 200 l 694 200 l 694 322 l 421 322 l 486 464 z "},"≤":{"ha":849,"x_min":0,"x_max":0,"o":"m 68 121 l 68 -28 l 785 -28 l 785 121 z m 364 535 l 785 739 l 785 925 l 81 564 l 81 504 l 785 143 l 785 328 z "},"≥":{"ha":850,"x_min":0,"x_max":0,"o":"m 71 121 l 71 -28 l 788 -28 l 788 121 z m 71 328 l 71 143 l 775 504 l 775 564 l 71 925 l 71 739 l 492 535 z "},"◊":{"ha":776,"x_min":0,"x_max":0,"o":"m 418 1018 l 356 1018 l 67 454 l 356 -110 l 418 -110 l 707 454 z m 546 454 l 386 129 l 226 454 l 386 779 z "},"":{"ha":900,"x_min":0,"x_max":0,"o":"m 458 654 b 78 328 153 654 78 493 b 460 -12 78 164 154 -12 b 840 328 767 -12 840 164 b 458 654 840 493 765 654 z m 460 0 b 374 328 425 0 374 21 b 458 642 374 635 431 642 b 544 328 490 642 544 635 b 460 0 544 21 489 0 z "},"":{"ha":719,"x_min":0,"x_max":0,"o":"m 249 125 b 153 13 249 21 208 13 l 153 0 l 576 0 l 576 13 b 499 125 528 13 499 18 l 499 654 l 144 563 l 144 550 b 249 476 215 550 249 546 z "},"":{"ha":751,"x_min":0,"x_max":0,"o":"m 638 263 b 499 182 608 207 546 182 l 301 182 b 649 493 383 263 675 254 b 215 611 618 690 311 675 b 114 494 138 558 124 521 b 135 401 103 464 110 428 b 260 400 168 367 225 365 b 263 526 296 433 296 490 b 201 550 249 542 224 551 b 226 604 192 550 179 581 b 406 496 306 639 382 585 b 253 154 432 400 413 300 l 100 0 l 583 0 l 649 263 z "},"":{"ha":843,"x_min":0,"x_max":0,"o":"m 769 -54 b 521 179 769 54 672 174 b 411 654 783 306 679 654 b 156 390 207 654 117 511 l 169 393 b 368 443 178 467 307 486 b 268 150 457 379 451 181 l 268 138 b 485 -85 438 138 469 3 b 358 -356 513 -242 463 -356 b 246 -311 247 -356 229 -311 b 322 -264 278 -307 301 -292 b 293 -96 361 -210 349 -135 b 126 -125 240 -57 164 -69 b 117 -250 99 -162 94 -217 b 360 -368 163 -329 238 -368 b 769 -54 539 -368 769 -328 z "},"":{"ha":874,"x_min":0,"x_max":0,"o":"m 804 -67 l 804 31 l 688 31 l 688 642 l 629 654 l 79 -44 l 79 -68 l 438 -67 l 438 -185 b 375 -356 438 -350 433 -356 l 375 -368 l 750 -368 l 750 -356 b 688 -178 692 -356 688 -353 l 688 -67 z m 438 31 l 203 29 b 215 108 175 29 156 31 l 438 389 z "},"":{"ha":851,"x_min":0,"x_max":0,"o":"m 179 269 l 204 410 l 685 410 l 751 642 l 236 642 l 126 58 b 557 -108 450 101 536 -36 b 396 -356 593 -233 518 -356 b 304 -306 294 -356 289 -314 b 357 -229 332 -290 349 -264 b 265 -79 374 -161 331 -94 b 113 -171 197 -64 129 -106 b 153 -297 103 -218 121 -269 b 396 -368 188 -325 253 -368 b 772 -69 585 -368 760 -286 b 179 269 786 150 588 339 z "},"":{"ha":865,"x_min":0,"x_max":0,"o":"m 506 654 b 344 525 442 654 358 608 b 499 978 346 881 399 978 b 601 935 583 978 613 938 b 535 893 569 929 550 918 b 568 744 503 843 517 775 b 717 779 619 713 686 726 b 719 890 740 813 739 860 b 499 990 711 904 656 990 b 63 442 224 990 63 783 b 444 -12 63 165 190 -12 b 803 321 656 -12 803 106 b 506 654 803 474 758 654 z m 444 0 b 344 481 340 0 349 179 b 453 596 360 560 397 596 b 543 293 524 596 543 475 b 444 0 543 78 549 0 z "},"":{"ha":793,"x_min":0,"x_max":0,"o":"m 138 642 l 82 332 l 94 332 b 235 413 124 388 188 413 l 617 413 b 246 -356 333 101 263 -86 l 513 -356 b 631 413 513 -149 506 158 l 764 642 z "},"":{"ha":808,"x_min":0,"x_max":0,"o":"m 392 690 b 285 865 306 732 276 804 b 410 978 294 926 342 978 b 565 785 488 978 565 926 b 519 625 565 707 551 649 z m 453 339 b 567 128 543 285 578 199 b 413 0 556 57 500 0 b 240 247 301 0 240 75 b 279 433 240 340 243 400 z m 413 -12 b 767 288 667 -12 767 107 b 533 618 767 413 701 543 b 700 785 567 626 700 663 b 410 990 700 903 618 990 b 78 726 194 990 78 868 b 244 451 78 601 146 519 b 61 236 183 429 61 376 b 413 -12 61 71 168 -12 z "},"":{"ha":835,"x_min":0,"x_max":0,"o":"m 349 -12 b 511 121 413 -12 499 31 b 357 -356 508 -233 531 -356 b 250 -312 271 -356 239 -315 b 326 -269 278 -308 310 -294 b 293 -117 360 -218 344 -149 b 139 -151 239 -83 171 -99 b 136 -267 115 -187 117 -236 b 357 -368 143 -281 200 -368 b 793 201 725 -368 793 -140 b 411 654 793 478 683 654 b 53 326 200 654 53 542 b 349 -12 53 174 96 -12 z m 411 642 b 511 160 515 642 507 461 b 394 46 497 97 464 46 b 313 354 332 46 313 172 b 411 642 313 569 307 642 z "},"":{"ha":811,"x_min":0,"x_max":0,"o":"m 403 0 l 403 324 l 426 308 b 403 0 593 185 551 0 z m 390 683 l 376 693 b 390 978 196 811 240 978 z m 590 551 l 403 675 l 403 978 b 706 693 615 971 678 793 l 718 693 l 718 926 b 403 990 718 926 631 988 l 403 1160 l 390 1160 l 390 990 b 85 885 163 990 85 885 b 213 443 -33 736 15 567 l 390 331 l 390 0 b 42 325 179 10 64 231 l 29 325 l 29 58 b 390 -12 29 58 129 -10 l 390 -182 l 403 -182 l 403 -12 b 718 101 643 -12 718 101 b 590 551 822 253 774 431 z "},"":{"ha":808,"x_min":0,"x_max":0,"o":"m 469 131 b 375 342 407 163 375 233 b 469 642 375 511 404 624 z m 522 533 b 583 403 501 481 529 421 b 715 464 636 382 697 410 b 694 569 726 501 718 544 b 482 654 661 607 590 654 l 482 824 l 469 824 l 469 654 b 103 324 215 650 103 511 b 469 -12 103 103 265 -12 l 469 -164 l 482 -164 l 482 -12 b 706 181 626 3 706 101 l 696 185 b 482 125 671 113 553 92 l 482 642 b 575 589 579 642 590 594 b 522 533 551 579 533 561 z "},"":{"ha":811,"x_min":0,"x_max":0,"o":"m 403 0 l 403 324 l 426 308 b 403 0 593 185 551 0 z m 390 683 l 376 693 b 390 978 196 811 240 978 z m 590 551 l 403 675 l 403 978 b 706 693 615 971 678 793 l 718 693 l 718 926 b 403 990 718 926 631 988 l 403 1160 l 390 1160 l 390 990 b 85 885 163 990 85 885 b 213 443 -33 736 15 567 l 390 331 l 390 0 b 42 325 179 10 64 231 l 29 325 l 29 58 b 390 -12 29 58 129 -10 l 390 -182 l 403 -182 l 403 -12 b 718 101 643 -12 718 101 b 590 551 822 253 774 431 z "},"":{"ha":900,"x_min":0,"x_max":0,"o":"m 458 654 b 78 328 153 654 78 493 b 460 -12 78 164 154 -12 b 840 328 767 -12 840 164 b 458 654 840 493 765 654 z m 460 0 b 374 328 425 0 374 21 b 458 642 374 635 431 642 b 544 328 490 642 544 635 b 460 0 544 21 489 0 z "},"":{"ha":719,"x_min":0,"x_max":0,"o":"m 249 125 b 153 13 249 21 208 13 l 153 0 l 576 0 l 576 13 b 499 125 528 13 499 18 l 499 654 l 144 563 l 144 550 b 249 476 215 550 249 546 z "},"":{"ha":751,"x_min":0,"x_max":0,"o":"m 638 263 b 499 182 608 207 546 182 l 301 182 b 649 493 383 263 675 254 b 215 611 618 690 311 675 b 114 494 138 558 124 521 b 135 401 103 464 110 428 b 260 400 168 367 225 365 b 263 526 296 433 296 490 b 201 550 249 542 224 551 b 226 604 192 550 179 581 b 406 496 306 639 382 585 b 253 154 432 400 413 300 l 100 0 l 583 0 l 649 263 z "},"":{"ha":843,"x_min":0,"x_max":0,"o":"m 769 -54 b 521 179 769 54 672 174 b 411 654 783 306 679 654 b 156 390 207 654 117 511 l 169 393 b 368 443 178 467 307 486 b 268 150 457 379 451 181 l 268 138 b 485 -85 438 138 469 3 b 358 -356 513 -242 463 -356 b 246 -311 247 -356 229 -311 b 322 -264 278 -307 301 -292 b 293 -96 361 -210 349 -135 b 126 -125 240 -57 164 -69 b 117 -250 99 -162 94 -217 b 360 -368 163 -329 238 -368 b 769 -54 539 -368 769 -328 z "},"":{"ha":874,"x_min":0,"x_max":0,"o":"m 804 -67 l 804 31 l 688 31 l 688 642 l 629 654 l 79 -44 l 79 -68 l 438 -67 l 438 -185 b 375 -356 438 -350 433 -356 l 375 -368 l 750 -368 l 750 -356 b 688 -178 692 -356 688 -353 l 688 -67 z m 438 31 l 203 29 b 215 108 175 29 156 31 l 438 389 z "},"":{"ha":851,"x_min":0,"x_max":0,"o":"m 179 269 l 204 410 l 685 410 l 751 642 l 236 642 l 126 58 b 557 -108 450 101 536 -36 b 396 -356 593 -233 518 -356 b 304 -306 294 -356 289 -314 b 357 -229 332 -290 349 -264 b 265 -79 374 -161 331 -94 b 113 -171 197 -64 129 -106 b 153 -297 103 -218 121 -269 b 396 -368 188 -325 253 -368 b 772 -69 585 -368 760 -286 b 179 269 786 150 588 339 z "},"":{"ha":865,"x_min":0,"x_max":0,"o":"m 506 654 b 344 525 442 654 358 608 b 499 978 346 881 399 978 b 601 935 583 978 613 938 b 535 893 569 929 550 918 b 568 744 503 843 517 775 b 717 779 619 713 686 726 b 719 890 740 813 739 860 b 499 990 711 904 656 990 b 63 442 224 990 63 783 b 444 -12 63 165 190 -12 b 803 321 656 -12 803 106 b 506 654 803 474 758 654 z m 444 0 b 344 481 340 0 349 179 b 453 596 360 560 397 596 b 543 293 524 596 543 475 b 444 0 543 78 549 0 z "},"":{"ha":793,"x_min":0,"x_max":0,"o":"m 138 642 l 82 332 l 94 332 b 235 413 124 388 188 413 l 617 413 b 246 -356 333 101 263 -86 l 513 -356 b 631 413 513 -149 506 158 l 764 642 z "},"":{"ha":808,"x_min":0,"x_max":0,"o":"m 392 690 b 285 865 306 732 276 804 b 410 978 294 926 342 978 b 565 785 488 978 565 926 b 519 625 565 707 551 649 z m 453 339 b 567 128 543 285 578 199 b 413 0 556 57 500 0 b 240 247 301 0 240 75 b 279 433 240 340 243 400 z m 413 -12 b 767 288 667 -12 767 107 b 533 618 767 413 701 543 b 700 785 567 626 700 663 b 410 990 700 903 618 990 b 78 726 194 990 78 868 b 244 451 78 601 146 519 b 61 236 183 429 61 376 b 413 -12 61 71 168 -12 z "},"":{"ha":835,"x_min":0,"x_max":0,"o":"m 349 -12 b 511 121 413 -12 499 31 b 357 -356 508 -233 531 -356 b 250 -312 271 -356 239 -315 b 326 -269 278 -308 310 -294 b 293 -117 360 -218 344 -149 b 139 -151 239 -83 171 -99 b 136 -267 115 -187 117 -236 b 357 -368 143 -281 200 -368 b 793 201 725 -368 793 -140 b 411 654 793 478 683 654 b 53 326 200 654 53 542 b 349 -12 53 174 96 -12 z m 411 642 b 511 160 515 642 507 461 b 394 46 497 97 464 46 b 313 354 332 46 313 172 b 411 642 313 569 307 642 z "},"":{"ha":808,"x_min":0,"x_max":0,"o":"m 469 131 b 375 342 407 163 375 233 b 469 642 375 511 404 624 z m 522 533 b 583 403 501 481 529 421 b 715 464 636 382 697 410 b 694 569 726 501 718 544 b 482 654 661 607 590 654 l 482 824 l 469 824 l 469 654 b 103 324 215 650 103 511 b 469 -12 103 103 265 -12 l 469 -164 l 482 -164 l 482 -12 b 706 181 626 3 706 101 l 696 185 b 482 125 671 113 553 92 l 482 642 b 575 589 579 642 590 594 b 522 533 551 579 533 561 z "},"ﬁ":{"ha":896,"x_min":0,"x_max":0,"o":"m 844 11 b 788 157 794 24 788 81 l 788 683 b 501 642 788 683 700 642 l 351 642 l 351 642 b 478 1022 351 871 363 1022 b 628 971 588 1022 663 979 b 558 921 599 964 574 947 b 592 757 521 865 536 793 b 756 790 646 722 719 738 b 763 926 781 832 783 888 b 479 1035 719 1003 574 1035 b 115 642 300 1035 115 953 l 115 642 l 25 642 l 25 629 l 115 629 l 115 157 b 61 11 115 86 114 26 l 61 0 l 408 0 l 408 11 b 351 157 358 25 351 81 l 351 629 l 501 629 b 551 518 554 629 551 567 l 551 157 b 497 11 551 86 550 26 l 497 0 l 844 0 l 844 11 z "},"ﬂ":{"ha":863,"x_min":0,"x_max":0,"o":"m 842 11 b 785 157 792 24 785 81 l 785 1036 l 500 990 b 339 1035 443 1040 339 1035 b 101 753 271 1035 101 999 l 101 642 l 11 642 l 11 629 l 101 629 l 101 157 b 47 11 101 86 100 26 l 47 0 l 394 0 l 394 11 b 338 157 344 25 338 81 l 338 629 l 486 629 l 486 642 l 338 642 l 338 642 b 500 978 338 899 364 1015 b 549 878 544 958 549 926 l 549 157 b 494 11 549 86 547 26 l 494 0 l 842 0 l 842 11 z "},"Ș":{"ha":856,"x_min":0,"x_max":0,"o":"m 610 551 l 396 693 b 408 978 215 811 258 978 b 725 693 631 978 697 793 l 738 693 l 738 926 b 408 990 738 926 646 990 b 104 885 181 990 104 885 b 232 443 -14 736 35 567 l 446 308 b 422 0 613 185 571 0 b 61 325 204 0 83 231 l 49 325 l 49 58 b 422 -12 49 58 153 -12 b 738 101 663 -12 738 101 b 610 551 842 253 793 431 z m 521 -82 b 318 -82 465 -26 375 -26 b 319 -287 263 -140 263 -231 b 417 -328 347 -314 382 -325 b 342 -487 442 -332 417 -428 l 351 -501 b 482 -390 417 -464 463 -421 b 521 -82 531 -322 608 -169 z "},"ș":{"ha":617,"x_min":0,"x_max":0,"o":"m 435 388 l 294 475 b 307 642 174 551 217 642 b 521 474 388 642 496 599 l 533 474 l 533 615 b 307 654 533 615 467 654 b 97 588 149 654 97 588 b 178 269 13 493 47 356 l 318 185 b 303 0 424 115 401 0 b 68 217 211 0 96 88 l 56 217 l 56 35 b 303 -12 56 35 135 -12 b 517 63 464 -12 517 63 b 435 388 593 154 561 311 z m 401 -82 b 199 -82 346 -26 256 -26 b 200 -287 143 -140 143 -231 b 297 -328 228 -314 263 -325 b 222 -487 322 -332 297 -428 l 232 -501 b 363 -390 297 -464 343 -421 b 401 -82 411 -322 489 -169 z "},"ț":{"ha":554,"x_min":0,"x_max":0,"o":"m 419 -82 b 217 -82 364 -26 274 -26 b 218 -287 161 -140 161 -231 b 315 -328 246 -314 281 -325 b 240 -487 340 -332 315 -428 l 250 -501 b 381 -390 315 -464 361 -421 b 419 -82 429 -322 507 -169 z m 444 89 b 336 204 364 89 336 126 l 336 629 l 515 629 l 515 642 l 336 642 l 336 857 l 103 828 l 103 642 l 15 642 l 15 629 l 103 629 l 103 200 b 338 -12 103 32 228 -12 b 538 125 440 -12 521 51 l 529 131 b 444 89 513 111 485 89 z "},"Ț":{"ha":1058,"x_min":0,"x_max":0,"o":"m 622 -82 b 419 -82 567 -26 476 -26 b 421 -287 364 -140 364 -231 b 518 -328 449 -314 483 -325 b 443 -487 543 -332 518 -428 l 453 -501 b 583 -390 518 -464 564 -421 b 622 -82 632 -322 710 -169 z m 28 978 l 28 665 l 39 665 b 367 965 46 825 250 965 l 382 965 l 382 157 b 319 13 382 63 375 13 l 319 0 l 729 0 l 729 13 b 667 157 674 13 667 63 l 667 965 l 682 965 b 1010 665 797 965 1003 825 l 1021 665 l 1021 978 z "}}}
